<?xml version="1.0" encoding="utf-8"?>
<!-- Generator: Adobe Illustrator 16.0.0, SVG Export Plug-In . SVG Version: 6.00 Build 0)  -->
<!DOCTYPE svg PUBLIC "-//W3C//DTD SVG 1.1//EN" "http://www.w3.org/Graphics/SVG/1.1/DTD/svg11.dtd">
<svg version="1.1" id="Layer_1" xmlns="http://www.w3.org/2000/svg" xmlns:xlink="http://www.w3.org/1999/xlink" x="0px" y="0px"
	 width="247.532px" height="247.276px" viewBox="0 0 247.532 247.276" enable-background="new 0 0 247.532 247.276"
	 xml:space="preserve">
<g>
	<linearGradient id="SVGID_1_" gradientUnits="userSpaceOnUse" x1="48.4751" y1="7.7266" x2="205.5743" y2="246.0063">
		<stop  offset="0.0476" style="stop-color:#D09E8C"/>
		<stop  offset="0.1917" style="stop-color:#C7582E"/>
		<stop  offset="0.2304" style="stop-color:#C8663F"/>
		<stop  offset="0.357" style="stop-color:#C88F80"/>
		<stop  offset="0.4659" style="stop-color:#C98B7A"/>
		<stop  offset="0.6241" style="stop-color:#CB7F6B"/>
		<stop  offset="0.8117" style="stop-color:#CE6C55"/>
		<stop  offset="0.8921" style="stop-color:#CF6149"/>
		<stop  offset="0.911" style="stop-color:#B9523C"/>
		<stop  offset="0.9508" style="stop-color:#923825"/>
		<stop  offset="0.9818" style="stop-color:#7C2918"/>
		<stop  offset="1" style="stop-color:#742314"/>
	</linearGradient>
	<path fill="url(#SVGID_1_)" d="M242.631,120.685c0,66.1-53.586,119.686-119.687,119.686c-66.094,0-119.675-53.586-119.675-119.686
		C3.27,54.586,56.851,1,122.944,1C189.045,1,242.631,54.586,242.631,120.685z"/>
</g>
<path fill="#E7CAC2" d="M47.435,148.096c10.634-13.846,20.963-27.42,35.774-37.083c12.454-8.125,26.021-13.342,40.316-17.169
	c15.782-4.202,32.165-7.333,47.025-14.367c15.382-7.266,27.055-20.6,40.292-30.928c1.583-1.228,3.178-2.407,4.812-3.556
	c-10.02-12.243-22.398-22.465-36.465-29.973c-2.185,1.479-4.368,2.947-6.581,4.407c-4.445,2.946-9.122,5.574-13.44,8.725
	c-12.803,9.313-22.731,21.855-34.31,32.551c-11.456,10.589-24.374,18.425-39.113,23.585c-7.933,2.792-16.093,4.861-24.068,7.517
	c-8.06,2.686-15.474,6.242-22.765,10.57c-11.546,6.878-22.923,14.938-35.624,19.585c0.198,19.894,5.271,38.63,14.068,55.066
	C29.75,170.968,39.305,158.687,47.435,148.096z"/>
<path fill="#E28481" d="M27.995,79.534c7.42-3.043,14.885-4.783,22.702-6.426c7.299-1.535,14.661-3.158,21.58-6.02
	c13.827-5.72,24.788-16.405,34.987-27.083c12.184-12.734,23.768-26.3,37.546-36.986c-5.502-1.015-11.111-1.681-16.859-1.913
	c-6.479,4.241-11.727,10.125-16.881,15.855c-5.183,5.749-10.289,11.662-16.14,16.773c-5.194,4.561-10.938,8.608-16.585,12.619
	c-12.208,8.666-25.106,16.647-38.918,22.502c-8.918,3.778-18.291,6.812-27.89,8.039c-1.372,3.468-2.565,7.015-3.614,10.619
	C14.787,85.399,21.333,82.278,27.995,79.534z"/>
<path fill="#E7CAC2" d="M120.428,19.242c-5.198,5.015-9.435,10.87-14.184,16.29c-4.772,5.46-9.946,10.648-15.69,15.123
	c-5.565,4.347-11.489,7.981-18.087,10.542C64.789,64.181,57,66.876,49.271,69.736C36.13,74.607,23.212,80.606,9.337,82.994
	c-0.483,1.498-0.971,3.004-1.416,4.521c6.865-2.116,13.411-5.237,20.073-7.981c7.42-3.043,14.885-4.783,22.702-6.426
	c7.299-1.535,14.661-3.158,21.58-6.02c13.827-5.72,24.788-16.405,34.987-27.083c12.184-12.734,23.768-26.3,37.546-36.986
	c-0.27-0.048-0.551-0.086-0.83-0.135C136.09,8.267,127.376,12.575,120.428,19.242z"/>
<path fill="#E28481" d="M19.155,119.129c6.028-4.125,12.493-7.604,18.502-11.758c5.584-3.846,12.117-8.484,14.773-15.016
	c-12.401-0.117-24.514,2.763-35.634,8.31c-4.463,2.221-8.734,4.763-12.87,7.497c-0.439,4.107-0.657,8.291-0.657,12.522
	c0,3.642,0.159,7.256,0.479,10.822c0.082-0.068,0.15-0.135,0.231-0.193C8.971,127.237,13.831,122.783,19.155,119.129z"/>
<path fill="#E28481" d="M130.945,41.678c9.132,0.329,17.866-4.107,25.683-8.368c7.749-4.213,15.314-9.208,23.653-12.223
	c1.922-0.695,3.846-1.372,5.769-2.067c-6.784-4.222-14.03-7.788-21.614-10.589C154.801,20.672,139.608,28.411,130.945,41.678z"/>
<path fill="#E5B3A9" d="M184.995,58.016c-16.184,12.494-35.256,19.258-54.789,24.523c-7.653,2.067-15.344,3.971-22.962,6.153
	c-7.45,2.137-14.619,4.542-21.169,8.784c-11.754,7.614-20.856,18.464-31.876,27.033c-8.473,6.591-18.304,11.219-27.354,16.949
	c-5.937,3.787-13.599,8.559-18.16,14.85c3.285,10.512,7.952,20.425,13.846,29.479c12.614-5.265,21.865-17.305,26.169-30.233
	c4.856-14.561,15.451-25.624,28.707-33.044c11.938-6.687,25.169-10.648,38.653-12.754c14.706-2.299,30.49-2.907,43.901-10.059
	c14.474-7.729,23.518-21.981,35.73-32.483c7.498-6.426,16.135-11.46,25.314-15.103c-4.028-5.779-8.58-11.17-13.536-16.125
	C200.358,43.716,193.354,51.581,184.995,58.016z"/>
<path fill="#E7CAC2" d="M214.678,48.335c-2.204,2.387-4.589,4.107-7.44,5.633c-6.638,3.575-13.082,7.392-19.508,11.382
	c-6.58,4.106-12.483,8.783-18.241,13.971c-5.257,4.707-10.474,9.818-16.35,13.721c-6.435,4.271-13.574,6.745-21.068,8.425
	c-7.86,1.749-15.7,3.459-23.45,5.711c-15.368,4.483-31.499,10.667-43.537,21.546c-5.662,5.121-10.397,11.063-14.905,17.198
	c-3.817,5.208-7.459,10.465-12.146,14.948c-5.87,5.604-13.401,11.585-21.581,14.426c1.851,3.604,3.875,7.101,6.078,10.492
	c12.614-5.265,21.865-17.305,26.169-30.233c4.856-14.561,15.451-25.624,28.707-33.044c11.938-6.687,25.169-10.648,38.653-12.754
	c14.706-2.299,30.49-2.907,43.901-10.059c14.474-7.729,23.518-21.981,35.73-32.483c7.498-6.426,16.135-11.46,25.314-15.103
	c-1.409-2.029-2.907-3.991-4.444-5.913C215.953,46.925,215.325,47.63,214.678,48.335z"/>
<path fill="#E9C69C" d="M183.034,99.265c3.652,0.483,7.391-1.072,10.773-2.212c3.509-1.161,6.986-2.291,10.427-3.663
	c7.749-3.139,15.363-6.589,23.633-8.136c2.898-0.541,5.951-0.908,8.985-1.381c-2.724-8.396-6.338-16.378-10.744-23.856
	c-6.299,4.329-12.687,8.542-18.782,13.169C197.866,80.364,188.541,88.549,183.034,99.265z"/>
<path fill="#E7CAC2" d="M55.513,191.751c8.986-0.6,17.155,3.072,25.722,5.121c15.308,3.67,31.928,4.212,46.489-2.629
	c13.204-6.193,25.368-17.574,30.633-31.344c4.571-11.962,5.624-27.006,17.683-34.156c6.067-3.584,12.908-5.864,19.343-8.706
	c7.574-3.343,15.149-6.821,23.131-9.159c6.917-2.011,14.106-2.638,21.111-4.252c0.715-0.164,1.421-0.347,2.116-0.541
	c-0.338-2.764-0.772-5.508-1.294-8.213c-7.44,2.551-15.209,4.328-22.243,6.126c-5.256,1.333-10.531,2.618-15.604,4.482
	c-6.154,2.272-12.028,5.093-17.836,8.136c-5.624,2.938-11.189,6.484-17.267,8.387c-5.247,1.653-10.706,2.319-16.185,2.194
	c-7.594-0.165-15.106-1.401-22.671-1.903c-7.701-0.513-15.479-0.251-23.035,1.392c-12.899,2.821-24.668,9.275-33.508,19.141
	c-8.758,9.759-13.527,22.155-21.909,32.193c-6.068,7.265-13.489,12.957-22.315,15.354c1.594,2.087,3.271,4.115,4.996,6.087
	C40.349,196.678,47.391,192.252,55.513,191.751z"/>
<path fill="#E9C69C" d="M227.471,106.443c-9.614,2.985-19.47,5.255-28.899,8.725c-10.012,3.7-18.32,9.382-27.189,15.121
	c-6.426,4.165-13.798,7.662-18.88,13.556c-5.122,5.904-7.961,13.469-12.265,19.943c-3.988,5.99-8.885,10.793-15.205,14.291
	c-6.333,3.497-13.212,5.962-20.309,7.324c-7.151,1.382-14.469,1.904-21.736,1.419c-8.121-0.55-16.15-1.478-24.213,0.271
	c-7.6,1.643-14.039,5.159-20.695,8.965c-1.789,1.044-3.624,2.087-5.494,3.073c0.097,0.097,0.189,0.212,0.286,0.329
	c7.479-2.783,14.521-7.208,22.643-7.71c8.986-0.6,17.155,3.072,25.722,5.121c15.308,3.67,31.928,4.212,46.489-2.629
	c13.204-6.193,25.368-17.574,30.633-31.344c4.571-11.962,5.624-27.006,17.683-34.156c6.067-3.584,12.908-5.864,19.343-8.706
	c7.574-3.343,15.149-6.821,23.131-9.159c6.917-2.011,14.106-2.638,21.111-4.252c0.715-0.164,1.421-0.347,2.116-0.541
	c-0.174-1.459-0.386-2.917-0.618-4.368C236.64,103.487,232.06,105.022,227.471,106.443z"/>
<path fill="#E5A89F" d="M241.123,101.718c-7.421,1.323-14.619,2.406-21.816,4.869c-16.146,5.567-32.35,10.996-47.809,18.291
	c-7.304,3.431-14.145,7.837-21.566,11.016c-7.015,2.985-14.276,3.498-21.798,3.633c-15.715,0.29-32.107-0.29-45.677,9.062
	c-11.846,8.185-16.523,22.118-26.533,31.943c-4.928,4.823-10.909,8.841-17.527,10.948c-2.169,0.696-6.855,1.121-10.02,2.531
	c0.783,1.005,1.58,2.011,2.4,2.977c6.561-3.227,13.078-6.802,20.151-8.735c8.183-2.27,16.101-1.565,24.319,0.232
	c8.884,1.913,18.055,4.657,27.249,3.478c7.975-1.004,15.787-3.747,22.811-7.633c6.551-3.623,12.942-8.213,17.61-14.136
	c4.56-5.797,6.957-12.676,9.392-19.526c4.329-12.146,15.188-19.721,26.146-25.489c13.914-7.333,28.136-13.151,43.056-18.02
	c6.348-2.077,13.101-3.16,19.729-4.608C241.201,102.269,241.162,102.008,241.123,101.718z"/>
<path fill="#E5A89F" d="M86.804,229.819c6.353-5.951,13.87-6.666,22.286-6.821c8.938-0.154,17.986,0.214,26.711-2.087
	c6.575-1.739,12.894-4.426,18.498-8.309c5.41-3.73,10.165-8.291,14.357-13.334c4.464-5.373,8.947-11.209,11.981-17.528
	c2.967-6.164,5.304-13.149,9.98-18.31c4.746-5.255,11.739-7.478,17.934-10.463c7.759-3.75,15.103-8.088,22.233-12.909
	c3.942-2.667,7.574-5.836,11.361-8.772c0.252-2.794,0.396-5.615,0.464-8.464c-1.854,1.236-3.642,2.568-5.391,3.95
	c-3.604,2.86-7.053,5.943-10.678,8.783c-11.313,8.861-26.812,10.059-38.503,18.31c-6.011,4.252-9.701,10.281-13.043,16.725
	c-3.479,6.667-7.227,12.929-12.213,18.609c-10.397,11.807-23.324,21.276-39.078,24.097c-14.601,2.59-29.59,0.62-43.852-2.975
	c-11.729-2.975-25.973-7.305-36.847-0.6c11.604,10.436,25.252,18.629,40.277,23.885C84.398,232.292,85.547,230.999,86.804,229.819z"
	/>
<path fill="#E28481" d="M215.683,178.532c-12.542,7.111-19.382,20.6-30.369,29.566c-11.69,9.547-25.517,16.059-39.711,20.927
	c-8.14,2.786-16.344,4.348-24.74,6.185c-4.45,0.966-8.614,2.107-12.653,4.252c4.836,0.6,9.755,0.908,14.735,0.908
	c47.124,0,87.878-27.247,107.387-66.833C225.325,174.754,220.176,175.991,215.683,178.532z"/>
<path fill="#E5A89F" d="M131.062,150.154c-3.111-0.366-6.691,0.871-9.962,1.721c-9.353,1.332-18.754,2.569-27.508,6.308
	c-4.058,1.739-7.488,4.232-10.687,7.219c-2.556,2.396-5.835,4.532-7.719,7.525c-0.179,0.281-0.135,0.715,0.251,0.754
	c4.255,0.455,9.015-1.391,13.202-2.164c5.354-0.967,10.809-0.928,16.064-2.551c4.773-1.459,8.861-4.155,12.793-7.228
	c4.421-3.421,9.159-6.492,13.537-9.942C131.48,151.43,131.999,150.261,131.062,150.154z M107.974,166.021
	c-4,1.941-9.005,2.463-13.373,3.062c-4.497,0.627-8.844,1.642-13.261,2.638c0.61-0.532,1.169-1.189,1.783-1.961
	c4.933-6.203,12.575-9.104,19.643-12.099c0.261-0.066,0.507-0.144,0.768-0.201c4.228-0.947,8.513-1.644,12.754-2.609
	c2.352-0.541,4.764-0.841,7.135-1.315c1.116-0.222,2.517-0.744,3.889-1.062c-2.223,1.469-4.555,2.812-6.618,4.532
	C116.732,160.309,112.649,163.75,107.974,166.021z"/>
<path opacity="0.6" fill="#E7CAC2" d="M174.01,36.953c-3.924-0.908-9.469,3.875-12.715,5.517c-3.044,1.526-5.798,3.392-8.446,5.469
	c-0.019,0.02-0.039,0.029-0.068,0.039c-1.207,0.976-2.502,1.972-3.796,3.015c-2.146,1.525-4.387,2.85-5.808,5.12
	c-0.744,0.783-1.458,1.574-2.096,2.416c-0.464,0.629-0.541,1.681,0.532,1.565c5.72-0.677,12.551-2.494,17.13-6.136
	c3.411-2.714,6.358-5.952,9.565-8.889c2.291-2.106,4.715-3.826,6.203-6.589C174.879,37.822,174.782,37.126,174.01,36.953z"/>
<path opacity="0.6" fill="#E7CAC2" d="M52.363,107.273c-3.111,1.132-5.875,3.673-8.483,5.663c-1.855,1.43-3.788,2.87-5.623,4.396
	c-0.46,0.339-0.895,0.667-1.319,0.937c-2.711,1.808-6.673,4.01-7.986,7.121c-0.281,0.677,0.318,1.267,0.985,1.113
	c3.73-0.774,7.981-2.638,11.001-5.016c4.387-3.44,7.207-8.627,11.725-11.884C53.682,108.877,54.387,106.54,52.363,107.273z
	 M41.604,117.303c-1.005,0.957-2.126,1.943-3.208,2.734C39.426,119.072,40.507,118.154,41.604,117.303z"/>
<path opacity="0.6" fill="#E7CAC2" d="M202.011,122.84c-4.058,1.604-8.271,3.005-12.137,5.054c-0.725,0.396-1.508,0.831-2.298,1.313
	c-3.402,1.652-6.552,3.808-9.402,6.716c-0.416,0.444-1.401,2.164-0.039,2.185c3.604,0.028,7.199-2.03,10.338-3.614
	c4.918-2.483,10.068-6.3,14.029-10.155C203.122,123.738,203.266,122.357,202.011,122.84z"/>
<path opacity="0.6" fill="#E7CAC2" d="M99.881,132.715c-6.957,0.145-13.305,4.512-18.889,8.212
	c-2.788,1.845-5.145,4.193-7.334,6.688c-1.902,2.174-3.328,5.12-5.072,7.614c-0.623,0.666-1.27,1.312-1.952,1.902
	c-1.126,0.976-0.522,2.716,0.928,1.709c4.894-3.41,9.367-8.154,13.647-12.309c5.502-5.363,12.275-7.923,18.417-12.203
	C99.944,134.115,100.954,132.686,99.881,132.715z M84.63,140.975c2.922-1.951,6.11-3.719,9.28-4.956
	c-3.106,1.613-6.299,3.092-9.233,5.043C84.668,141.053,84.653,141.004,84.63,140.975z"/>
<path opacity="0.6" fill="#E7CAC2" d="M184.562,147.072c-0.521-1.574-2.977-0.792-3.981-0.271c-1.122,0.561-2.262,1.711-2.831,2.958
	c-0.493,0.424-0.938,0.888-1.323,1.438c-0.193,0.3-0.232,0.803,0.144,0.986c1.904,0.908,3.893-0.144,5.411-1.323
	C182.947,150.117,185.063,148.551,184.562,147.072z"/>
<path opacity="0.6" fill="#E7CAC2" d="M200.03,139.565c-0.416-0.454-0.861-0.521-1.323-0.406c-0.407-0.058-0.938,0.106-1.189,0.367
	c-0.29,0.3-0.551,0.647-0.647,1.054c-0.27,0.222-0.54,0.502-0.772,0.87c-0.214,0.347-0.117,0.772,0.3,0.85
	c1.033,0.251,2.066-0.686,2.928-1.131C199.769,140.946,200.504,140.058,200.03,139.565z"/>
<path opacity="0.6" fill="#E7CAC2" d="M161.796,60.249c-0.308-1.179-1.991-0.821-2.743-0.483c-1.16,0.541-2.474,1.488-2.995,2.696
	c-0.021,0.078-0.06,0.154-0.088,0.232c-0.376,0.454-0.686,0.976-0.801,1.584c-0.048,0.184-0.107,0.542,0.086,0.686
	c1.518,1.141,3.353,0.144,4.647-0.879C160.995,63.225,162.154,61.747,161.796,60.249z"/>
<path opacity="0.6" fill="#E7CAC2" d="M182.512,47.176c-1.332,0.145-2.686,0.879-3.883,1.652c-0.454,0.213-0.89,0.464-1.276,0.686
	c-1.256,0.715-2.647,1.701-3.324,3.004c-0.647,1.247,0.174,2.59,1.624,2.58c1.625-0.019,3.305-0.888,4.686-1.642
	c1.47-0.803,3.152-2.001,3.836-3.595C184.812,48.325,184.27,46.982,182.512,47.176z"/>
<path opacity="0.6" fill="#E7CAC2" d="M33.637,129.507c-1.778-0.203-4.038,1.344-4.434,3.044c-0.01,0.058-0.02,0.106-0.029,0.165
	c-0.44,0.386-0.711,1.003-0.228,1.332c0.546,0.367,1.329,0.3,1.958,0.222c0.922-0.124,1.753-0.609,2.497-1.159
	C34.43,132.367,35.744,129.72,33.637,129.507z"/>
<path opacity="0.6" fill="#E7CAC2" d="M100.892,121.903c-0.512-0.088-1.161-0.088-1.841,0.009c-0.672,0.029-1.391,0.289-1.986,0.531
	c-0.052,0.02-0.105,0.028-0.15,0.057c-0.08,0.021-0.14,0.058-0.211,0.078c-1.348,0.541-2.624,1.286-3.758,2.173
	c-0.363,0.28-0.817,1.025-0.425,1.45c1.116,1.274,3.507,0.569,4.874,0.165c1.754-0.514,3.909-1.75,4.117-3.76
	C101.549,122.202,101.249,121.979,100.892,121.903z"/>
<path opacity="0.6" fill="#E7CAC2" d="M66.43,148.126c-0.187,0.086-0.376,0.212-0.55,0.337c-0.086-0.163-0.444,0.088-0.463,0.232
	c-0.015,0.086-0.024,0.222-0.043,0.357c-0.174,0.279-0.299,0.6-0.299,0.965c0-0.008,0.01-0.028,0.024-0.028
	c-0.024,0.174,0.038,0.329,0.27,0.349c0.354,0.038,0.789-0.3,0.865-0.649c0.082-0.163,0.039-0.193-0.111-0.076
	c0.15-0.068,0.28-0.146,0.396-0.241c0.212-0.203,0.314-0.407,0.425-0.677C67.112,148.31,66.909,147.903,66.43,148.126z"/>
</svg>
