<?xml version="1.0" encoding="utf-8"?>
<!-- Generator: Adobe Illustrator 16.0.0, SVG Export Plug-In . SVG Version: 6.00 Build 0)  -->
<!DOCTYPE svg PUBLIC "-//W3C//DTD SVG 1.1//EN" "http://www.w3.org/Graphics/SVG/1.1/DTD/svg11.dtd">
<svg version="1.1" id="Layer_1" xmlns="http://www.w3.org/2000/svg" xmlns:xlink="http://www.w3.org/1999/xlink" x="0px" y="0px"
	 width="192.213px" height="189.83px" viewBox="0 0 192.213 189.83" enable-background="new 0 0 192.213 189.83"
	 xml:space="preserve">
<linearGradient id="SVGID_1_" gradientUnits="userSpaceOnUse" x1="53.6641" y1="1.939" x2="138.7734" y2="187.6319">
	<stop  offset="0.032" style="stop-color:#8AD1D9"/>
	<stop  offset="0.2733" style="stop-color:#E46332"/>
	<stop  offset="0.7748" style="stop-color:#E89337"/>
	<stop  offset="1" style="stop-color:#A8AEA3"/>
</linearGradient>
<path fill="url(#SVGID_1_)" d="M187.151,94.093c0,50.382-40.853,91.258-91.258,91.258c-50.394,0-91.245-40.876-91.245-91.258
	c0-50.406,40.851-91.257,91.245-91.257C146.298,2.835,187.151,43.687,187.151,94.093z"/>
<linearGradient id="SVGID_2_" gradientUnits="userSpaceOnUse" x1="69.0947" y1="10.6948" x2="123.2563" y2="179.1973">
	<stop  offset="0" style="stop-color:#E35932"/>
	<stop  offset="0.2784" style="stop-color:#A0121D"/>
	<stop  offset="0.4476" style="stop-color:#C24129"/>
	<stop  offset="0.5837" style="stop-color:#D95C31"/>
	<stop  offset="0.6606" style="stop-color:#E46834"/>
	<stop  offset="0.7281" style="stop-color:#DC5F31"/>
	<stop  offset="0.8295" style="stop-color:#CC482C"/>
	<stop  offset="0.9161" style="stop-color:#BB2E26"/>
</linearGradient>
<path fill="url(#SVGID_2_)" d="M187.151,94.093c0,50.382-40.853,91.258-91.258,91.258c-50.394,0-91.245-40.876-91.245-91.258
	c0-50.406,40.851-91.257,91.245-91.257C146.298,2.835,187.151,43.687,187.151,94.093z"/>
<g opacity="0.6">
	<path fill="#AD3024" d="M38.416,97.414c9.268-1.843,19.413-0.501,27.623-6.075c7.633-5.209,11.374-14.558,19.051-19.629
		c4.015-2.661,8.517-3.526,13.228-4.095c5.481-0.614,10.395-1.547,14.694-5.254c1.683-1.456,6.165-5.095,4.322-7.78
		c-1.445-2.115-4.812-2.616-7.132-2.979c-6.869-1.002-14.465-1.025-21.38-0.342c-4.893,0.455-9.464,1.796-13.978,3.662
		c-5.278,2.206-10.27,4.731-15.979,5.572c-9.894,1.411-19.448-0.887-29.205-2.274c-5.232-0.729-10.612-1.184-15.844-0.296
		c-0.648,0.091-1.251,0.205-1.877,0.364C7.252,69.276,4.648,81.376,4.648,94.093c0,8.779,1.24,17.287,3.572,25.317
		c5.389-3.754,10.007-8.418,14.92-12.784C27.645,102.623,32.352,98.664,38.416,97.414z"/>
	<path fill="#AD3024" d="M54.905,175.635c3.731-0.91,7.324-2.411,10.623-4.364c5.481-3.278,9.621-7.508,13.886-12.149
		c3.618-3.911,7.79-7.277,12.579-9.642c8.622-4.253,18.243-5.735,27.522-7.892c5.597-1.297,11.124-2.138,16.89-1.708
		c5.312,0.388,10.531,1.501,15.73,2.66c6.107,1.39,12.431,2.937,18.764,3.528c10.259-14.74,16.252-32.666,16.252-51.975
		c0-17.151-4.731-33.21-12.967-46.926c-1.228,2.297-2.694,4.55-4.114,6.801c-2.355,3.754-13.811,5.504-14.402,9.963
		c-0.718,5.186,16.006,17.778,10.841,17.356c-8.212-0.671-11.919,5.726-8.212,9.378s3.332,9.136,0,11.729
		c-3.741,2.887-5.345,8.145-8.552,11.714c-2.353,2.618-2.025,5.417-2.172,8.69c-0.102,2.457-0.661,4.525-2.126,6.571
		c-2.228,3.071-5.253,5.758-9.268,5.8c-4.163,0.046-8.03-1.727-11.805-3.205c-5.664-2.23-10.794-6.234-16.753-7.62
		c-2.434-0.568-5.562-1.251-8.019-0.388c-1.466,0.522-2.593,1.547-3.833,2.457c-4.07,3.001-9.154,4.775-14.033,6.003
		c-5.026,1.274-10.168,1.593-15.319,1.297c-5.55-0.295-10.679-1.889-15.716-4.138c-5.255-2.369-10.328-4.664-15.844-6.368
		c-3.024-0.956-6.495-0.707-9.624-0.48c-4.105,0.296-8.176,0.864-12.246,1.478c-1.014,0.185-2.025,0.342-3.039,0.526
		C17.853,146.908,34.093,165.153,54.905,175.635z"/>
	<path fill="#AD3024" d="M127.374,30.312c2.242-0.75,4.401-1.842,6.744-2.297c2.683-0.5,5.345-1.091,8.097-0.978
		c2.787,0.068,5.504,0.455,8.28,0.614c2.65,0.182,5.244,0.113,7.802-0.113c-3.355-3.163-6.947-6.075-10.748-8.667
		c-7.153,5.597-21.018,6.756-28.318,10.258C121.78,30.745,124.373,31.336,127.374,30.312z"/>
</g>
<g opacity="0.4">
	<path fill="#C18EA6" d="M26.132,71.051c-6.188-0.707-12.442-2.845-18.346-0.773c-0.545,2.069-1.046,4.14-1.443,6.255
		c3.001-0.296,6.049-1.161,8.746-1.843C18.773,73.712,22.627,72.688,26.132,71.051z"/>
	<path fill="#C18EA6" d="M58.124,84.266c4.789,0.204,9.189-2.867,12.625-6.074c-0.319,0.046-0.614,0.115-0.924,0.183
		C66.062,80.559,62.139,82.561,58.124,84.266z"/>
	<path fill="#C18EA6" d="M74.092,64.75c-0.591,0.023-1.182,0.068-1.776,0.159c-0.965,0.25-1.921,0.568-2.877,0.955
		c-0.501,0.297-0.967,0.659-1.364,1.092c4.458,0.273,8.268-0.159,11.738-3.026c-1.799,0.023-3.583,0.183-5.336,0.501
		C74.443,64.614,74.318,64.75,74.092,64.75z"/>
	<path fill="#C18EA6" d="M5.581,107.171c0.09,0.637,0.206,1.274,0.296,1.89c3.036-1.07,6.176-2.436,8.541-4.619
		C11.323,104.897,8.356,105.694,5.581,107.171z"/>
	<path fill="#C18EA6" d="M100.295,57.63c1.921-0.887,3.697-2.069,5.571-3.025c-5.446,0.82-10.769,2.07-15.807,4.391
		C93.54,58.858,97.121,59.132,100.295,57.63z"/>
	<path fill="#C18EA6" d="M36.014,79.557c2.297-1.318,4.253-3.093,6.414-4.572c-4.89,1.479-9.508,3.753-14.294,5.551
		C30.886,80.626,33.673,80.876,36.014,79.557z"/>
	<path fill="#C18EA6" d="M60.091,161.967c1.99-0.499,4.458-0.956,6.005-2.364c1.547-1.39,2.819-2.937,4.424-4.166
		c-6.278,1.141-12.579,2.161-18.674,4.027c-4.322,1.321-9.123,3.071-12.773,6.008c1.616,1.293,3.288,2.521,5.003,3.708
		c3.05-2.595,6.631-4.664,10.385-5.781C56.316,162.854,58.214,162.465,60.091,161.967z"/>
	<path fill="#C18EA6" d="M63.411,144.974c2.025-0.204,4.015-0.204,6.075-0.18c3.502,0.046,6.643-0.411,9.679-1.958
		C73.829,142.291,68.269,142.655,63.411,144.974z"/>
	<path fill="#C18EA6" d="M185.297,75.713c-0.171-0.795-0.342-1.591-0.533-2.387c-1.935,1.092-3.891,2.161-5.835,3.23
		C181.067,76.305,183.182,76.055,185.297,75.713z"/>
	<path fill="#C18EA6" d="M107.254,132.464c0.912-0.771,1.729-1.593,2.639-2.249c-3.844,0.453-7.836,2.249-11.475,3.5
		C101.478,134.011,104.902,134.491,107.254,132.464z"/>
	<path fill="#C18EA6" d="M167.17,107.854c2.865-0.705,6.298-1.137,7.675-3.889c0.263-0.523,0.512-1.069,0.752-1.57
		C172.434,103.669,169.375,105.169,167.17,107.854z"/>
	<path fill="#C18EA6" d="M172.741,119.433c3.899-0.48,7.871-0.729,11.396-2.027c0.238-0.951,0.487-1.907,0.704-2.84
		c-1.865,0.203-3.74,0.406-5.504,1.09C176.982,116.588,174.946,118.181,172.741,119.433z"/>
</g>
<path opacity="0.2" fill="#9B3F21" d="M95.893,2.835c-50.394,0-91.245,40.851-91.245,91.257c0,50.382,40.851,91.258,91.245,91.258
	c50.405,0,91.258-40.876,91.258-91.258C187.151,43.687,146.298,2.835,95.893,2.835z M89.082,160.669
	c-41.706,0-75.505-33.843-75.505-75.538c0-41.694,33.8-75.495,75.505-75.495c41.705,0,75.516,33.801,75.516,75.495
	C164.598,126.826,130.787,160.669,89.082,160.669z"/>
<path opacity="0.1" fill="#C4E8FA" d="M26.99,141.198c-12.341-19.515-16.573-36.53-17.414-49.61c0-0.045-0.011-0.09-0.011-0.159
	c-0.51-4.14-0.716-8.324-0.591-12.441c-2.375,13.603-2.491,35.187,11.247,58.89c23.202,40.078,66.478,46.357,88.269,42.649
	C108.489,180.527,55.648,186.461,26.99,141.198z"/>
</svg>
