<?xml version="1.0" encoding="utf-8"?>
<!-- Generator: Adobe Illustrator 16.0.0, SVG Export Plug-In . SVG Version: 6.00 Build 0)  -->
<!DOCTYPE svg PUBLIC "-//W3C//DTD SVG 1.1//EN" "http://www.w3.org/Graphics/SVG/1.1/DTD/svg11.dtd">
<svg version="1.1" id="Layer_1" xmlns="http://www.w3.org/2000/svg" xmlns:xlink="http://www.w3.org/1999/xlink" x="0px" y="0px"
	 width="247.532px" height="247.276px" viewBox="0 0 247.532 247.276" enable-background="new 0 0 247.532 247.276"
	 xml:space="preserve">
<g>
	<radialGradient id="SVGID_1_" cx="-16.3906" cy="-44.9053" r="365.9344" gradientUnits="userSpaceOnUse">
		<stop  offset="0" style="stop-color:#E4F3FC"/>
		<stop  offset="0.2199" style="stop-color:#AEB7BD"/>
		<stop  offset="0.6059" style="stop-color:#8CA4AF"/>
		<stop  offset="1" style="stop-color:#3A3C3E"/>
	</radialGradient>
	<path fill="url(#SVGID_1_)" d="M243,123.526c0,66.255-53.735,120.011-119.991,120.011C56.735,243.537,3,189.781,3,123.526
		C3,57.25,56.735,3.535,123.009,3.535C189.266,3.535,243,57.25,243,123.526z"/>
</g>
<path opacity="0.5" fill="#8CA4AF" d="M188.127,194.933c-0.519-8.746-11.561-6.35-16.774-3.954
	c-6.689,3.075-14.457,10.464-10.523,18.292c0.341,2.316,1.278,4.473,3.277,5.671c4.092,2.396,8.885,0.639,12.738-1.438
	C183.055,210.109,188.507,202.242,188.127,194.933z"/>
<path opacity="0.5" fill="#8CA4AF" d="M202.025,186.306c-0.039-0.119-0.1-0.239-0.178-0.319c0-0.28-0.101-0.519-0.261-0.679
	c-0.399-0.319-0.698-0.479-1.278-0.519c-0.679-0.12-1.417,0.2-2.037,0.519c-1.177,0.679-2.117,1.877-2.476,3.155
	c-0.119,0.36-0.119,0.759-0.039,1.158c0.199,0.559,0.658,0.719,1.198,0.879c1.797,0.439,4.092-0.999,4.792-2.636
	C201.986,187.345,202.206,186.826,202.025,186.306z"/>
<path opacity="0.5" fill="#8CA4AF" d="M197.892,147.888c-2.196-2.716-5.851-2.815-8.946-1.737c-0.398,0.12-0.818,0.299-1.198,0.5
	c-2.594,0.698-4.471,2.455-5.791,4.591c-3.016,3.575-4.751,8.188-2.375,12.101c0.399,2.157,1.358,4.154,3.294,5.272
	c5.85,3.515,13.779-5.591,15.456-10.224C199.43,155.355,200.109,150.683,197.892,147.888z"/>
<path opacity="0.5" fill="#8CA4AF" d="M210.591,162.943c0,0,0-0.08,0-0.12c0-0.08,0-0.16-0.039-0.199
	c0.039-0.32-0.021-0.6-0.181-0.799c-0.118-0.16-0.258-0.24-0.418-0.32c-0.7-0.399-1.817,0.36-2.197,0.879
	c-0.16,0.2-0.299,0.399-0.419,0.639c-0.219,0.479-0.399,1.078-0.04,1.518c0.28,0.239,0.599,0.319,0.94,0.239
	c0.359,0.12,0.818,0,1.198-0.239h0.02c0.019-0.04,0.061-0.08,0.099-0.08c0.04-0.04,0.06-0.04,0.101-0.08
	c0.019-0.04,0.08-0.08,0.139-0.08c0.04-0.08,0.08-0.08,0.119-0.16C210.253,163.823,210.572,163.382,210.591,162.943L210.591,162.943
	z"/>
<path opacity="0.5" fill="#8CA4AF" d="M138.785,200.764c-4.751-7.309-19.708-3.315-24.282,2.196
	c-0.479,0.56-0.917,1.199-1.339,1.917c-0.557,0.639-1.017,1.358-1.337,2.157c-2.297,5.591,6.87,10.583,11.542,10.063
	C129.02,216.459,143.756,208.392,138.785,200.764z"/>
<path opacity="0.5" fill="#8CA4AF" d="M148.33,216.859c-0.239-0.32-0.698-0.4-1.078-0.32h-0.06c-0.202,0.08-0.421,0.16-0.66,0.32
	c-0.2,0-0.419,0.04-0.601,0.119c-0.519,0.2-0.958,0.601-1.257,1.08c-0.32,0.599-0.658,1.198-0.479,1.877
	c0.219,0.799,1.039,0.917,1.777,0.759C147.451,220.453,149.589,218.375,148.33,216.859z"/>
<path opacity="0.5" fill="#8CA4AF" d="M153.622,227.522l-0.14-0.24c-0.278-0.479-0.858-0.119-1.238,0.28l-0.019,0.04
	c-0.202,0.2-0.341,0.398-0.421,0.519c-0.019,0.08-0.039,0.16-0.08,0.24c-0.039,0.08-0.079,0.199-0.098,0.279
	c-0.16,0.639,0.418,0.719,1.017,0.519c0.339-0.079,0.679-0.239,0.898-0.519C153.902,228.321,154.022,227.88,153.622,227.522z"/>
<path opacity="0.5" fill="#8CA4AF" d="M52.262,185.268c1.118-5.471-4.313-13.857-10.243-9.146c-2.378,1.838-2.716,4.234-1.897,6.39
	c0.339,1.917,1.158,3.914,1.757,5.033c1.019,1.917,2.617,3.434,4.933,3.273c1.995-0.199,3.614-1.557,4.612-3.273
	c0.2-0.32,0.36-0.639,0.459-1C52.062,186.107,52.201,185.707,52.262,185.268z"/>
<path opacity="0.5" fill="#8CA4AF" d="M57.692,197.848v-0.078c0-0.2,0.06-0.4,0-0.561c-0.139-0.239-0.279-0.479-0.399-0.679
	c-0.2-0.319-0.778-0.199-1.019-0.119c-0.578,0.239-0.958,0.719-1.198,1.238c-0.299,0.719-0.519,1.797,0.4,2.195
	C56.415,200.245,58.131,198.887,57.692,197.848z"/>
<path opacity="0.5" fill="#8CA4AF" d="M222.493,99.144c-6.729,0.44-12.459,15.795-7.149,20.108c1.856,2.756,4.994,4.534,8.307,2.796
	C230.221,118.553,232.738,98.464,222.493,99.144z"/>
<path opacity="0.5" fill="#8CA4AF" d="M161.33,72.107c-0.1-0.24-0.319-0.419-0.679-0.5c-0.079-0.019-0.159,0-0.219-0.019
	c0.019-0.08,0.08-0.2,0.12-0.28c0.099-0.26-0.06-0.559-0.32-0.58c-0.439-0.04-0.778,0.299-0.998,0.62
	c-0.12,0.219-0.259,0.379-0.36,0.578c-0.22,0.101-0.439,0.24-0.599,0.36c-0.798,0.58-1.977,1.837-1.236,2.875l0,0
	c-0.021,0.141-0.061,0.261-0.08,0.4c-0.122,0.799,0.418,1.198,1.156,0.898c0.7-0.28,1.319-0.679,1.859-1.219
	C161.011,74.722,162.508,73.085,161.33,72.107z"/>
<path opacity="0.5" fill="#8CA4AF" d="M50.524,128.518c-1.198-2.396-3.754-2.297-5.871-1.158c-3.375,1.837-6.789,8.027-3.655,10.743
	c0.379,1.257,1.179,2.377,2.497,2.556c2.737,0.359,4.952-2.197,6.289-4.213C51.264,134.209,51.783,130.994,50.524,128.518z"/>
<path opacity="0.5" fill="#8CA4AF" d="M29.357,99.504c-1.118-0.818-2.396-0.818-3.594-0.34c0.16-0.36,0-0.719-0.561-0.438
	c-3.033,1.557-5.032,5.949-3.653,9.245c0.639,1.597,2.277,2.017,3.813,1.517c2.336-0.719,3.674-2.516,4.534-4.671
	C30.496,103.237,30.914,100.702,29.357,99.504z"/>
<path opacity="0.3" fill="#BAE4FA" d="M206.28,180.595c-6.731,6.151-14.498,9.905-22.105,14.538c0.08-0.4,0.118-0.799,0.059-1.198
	c-0.021-0.08-0.059-0.12-0.101-0.16c2.138-1.877,4.074-4.793,5.572-6.43c4.614-4.992,9.246-10.703,11.982-16.974
	c0.16-0.359-0.3-0.319-0.4-0.079c-2.197,4.792-5.492,8.786-8.746,12.78c-1.458,1.837-2.997,3.594-4.574,5.271
	c-0.658,0.719-2.894,3.435-4.732,5.032h-0.038c2.375-4.233,4.072-9.024,5.271-13.658c0.08-0.24-0.3-0.08-0.34,0.08
	c-1.358,4.712-3.434,9.026-5.631,13.339c1.038-3.355,1.898-6.79,2.577-10.224c0.038-0.24-0.3-0.08-0.32,0.08
	c-0.799,3.354-1.917,6.629-2.936,9.904c-0.898-6.35-1.019-13.059-1.078-19.408c0-0.2-0.36-0.04-0.339,0.118
	c0.021,6.59,0.119,13.419,1.059,19.969c-0.061,0.04-0.101,0.08-0.139,0.08c0,0-0.061-0.04-0.101-0.04
	c-0.16-0.08-0.419,0.12-0.379,0.28c-0.3,0.158-0.559,0.358-0.798,0.599c-3.595-5.432-6.431-10.983-8.347-17.292
	c-0.061-0.16-0.36,0.04-0.32,0.198c1.797,6.47,4.513,12.062,8.246,17.493c-0.039,0-0.06,0.04-0.08,0.08
	c-2.215-2.796-5.492-4.673-7.827-7.269c-0.141-0.159-0.459,0.16-0.36,0.28c2.337,2.676,5.133,4.952,7.689,7.388l-0.04,0.08
	c-7.008-1.358-14.277-2.276-21.327-3.035c-0.139,0-0.379,0.319-0.179,0.319c7.029,0.959,13.997,2.357,21.006,3.515
	c-0.08,0.16-0.139,0.399-0.16,0.559c-1.536,0.16-3.174,0.08-4.572,0.32c-2.057,0.399-4.054,0.877-6.171,1.118
	c-0.139,0-0.338,0.359-0.08,0.319c2.577-0.199,5.154-0.958,7.729-1.038c0.998,0,2.016,0.04,3.056-0.08c0,0.28,0,0.559,0.039,0.799
	c-2.515,1.158-5.231,2.077-7.728,2.995c-5.432,2.037-10.722,5.312-16.374,6.47c-0.12,0.04-0.219,0.24-0.101,0.2
	c5.711-0.959,11.083-3.994,16.415-6.071c2.396-0.917,5.011-1.717,7.428-2.794c-1.538,1.038-3.195,1.917-4.632,2.955
	c-2.138,1.518-4.833,3.994-7.271,4.952c-0.159,0.04-0.239,0.32,0,0.24c2.617-0.959,5.112-3.195,7.369-4.833
	c1.458-0.998,3.155-1.877,4.673-2.834c-2.575,2.355-5.471,4.473-8.146,6.55c-4.633,3.754-9.026,7.668-14.317,10.462
	c-0.199,0.16-0.18,0.4,0.08,0.28c5.391-2.756,9.884-6.59,14.577-10.344c2.936-2.356,6.369-4.593,9.225-7.269h0.042
	c0.139,0,0.319-0.04,0.479-0.08c-1.818,2.956-3.815,5.911-5.751,8.707c-2.236,3.155-4.553,7.428-7.409,10.064
	c-0.219,0.2-0.04,0.399,0.22,0.24c3.076-2.676,5.351-6.791,7.729-10.065c1.755-2.396,3.634-4.952,5.251-7.588
	c-0.818,4.793-1.818,9.665-3.735,14.098c-0.04,0.12,0.08,0.12,0.12,0.04c2.277-4.751,3.953-10.502,4.732-15.895
	c0.06,0,0.08,0,0.08,0c0.719,2.316,1.837,4.713,2.535,6.869c0.759,2.237,2.957,8.547,4.694,9.226
	c-0.139-0.04-0.439,0.239-0.28,0.319c0.12,0.04,0.18,0.12,0.239,0.12c0.181,0.08,0.44-0.16,0.32-0.319
	c-2.056-2.437-3.054-6.79-4.332-9.745c-0.879-2.037-1.818-4.553-2.438-6.949c0.16-0.12,0.28-0.24,0.4-0.36
	c3.016,4.673,6.449,8.986,9.125,13.819c0.139,0.199,0.519-0.08,0.419-0.24c-2.598-4.952-5.972-9.465-8.987-14.138
	c0.08-0.12,0.181-0.199,0.24-0.319c0.719,0.279,1.398,0.559,2.097,0.837c2.617,1.997,5.331,3.834,7.988,5.751
	c0.139,0.12,0.54-0.238,0.358-0.398c-1.896-1.479-3.792-3.155-5.81-4.553c0.58,0.16,1.179,0.32,1.718,0.479
	c2.455,0.639,4.233,2.317,6.867,2.556c0.24,0,0.582-0.479,0.261-0.519c-2.855-0.239-5.013-2.037-7.728-2.795
	c-1.02-0.32-1.957-0.679-2.916-0.999c-0.259-0.239-0.521-0.479-0.778-0.639c0.578,0.08,1.139,0.16,1.658,0.28
	c3.214,0.479,6.55,0.759,9.803,0.998c0.202,0,0.54-0.479,0.24-0.479c-2.675-0.28-5.471-0.719-8.187-1.118
	c-0.759-0.08-1.477-0.24-2.176-0.4c6.571-1.358,12.98-2.875,19.37-5.271c0.239-0.12,0.378-0.6,0-0.48
	c-6.789,2.556-13.638,3.994-20.648,5.432c-0.179-0.04-0.379-0.12-0.54-0.16c7.588-4.393,15.137-8.587,21.667-14.737
	C206.698,180.595,206.5,180.356,206.28,180.595z"/>
<path opacity="0.5" fill="#FFFFFF" d="M85.409,123.046c-0.519-0.1-0.998,0.12-1.418,0.5c-0.119,0.061-0.279,0.2-0.397,0.339
	c-0.581,0.599-0.86,1.578-0.881,2.396c0,0.78,0.36,1.638,1.278,1.518c1.199-0.16,2.018-1.398,2.336-2.457
	C86.626,124.384,86.567,123.246,85.409,123.046z"/>
<path opacity="0.5" fill="#FFFFFF" d="M184.433,193.936c-0.239,0-0.459,0-0.658,0.078c-0.498-0.04-1.299,0.32-1.658,0.561
	c-1.038,0.718-2.076,1.677-1.877,2.955c0.139,1.118,1.717,0.917,2.417,0.639c1.438-0.639,2.356-2.077,2.276-3.674
	C184.913,194.214,184.753,193.896,184.433,193.936z"/>
<path opacity="0.5" fill="#FFFFFF" d="M229.942,145.372c-0.059-0.759-0.419-1.698-1.179-1.957c-0.837-0.28-1.618,0.139-2.256,0.639
	c-1.099,0.858-1.877,2.556-1.797,3.953c0.019,0.379,0.12,0.879,0.319,1.278c0.061,0.141,0.08,0.261,0.141,0.36
	c0.658,1.438,2.335,0.46,3.115-0.28C229.381,148.228,230.121,146.969,229.942,145.372z"/>
<path opacity="0.5" fill="#FFFFFF" d="M230.52,153.179c-0.019-0.08-0.059-0.101-0.119-0.16V153c0-0.04,0-0.12-0.061-0.16v-0.021
	c-0.02-0.059-0.04-0.099-0.04-0.099c-0.119-0.479-0.778-0.18-0.958,0.021c-0.419,0.359-0.86,0.758-0.979,1.316
	c-0.16,0.74,0.679,0.66,1.097,0.3c0.061-0.06,0.101-0.119,0.141-0.18c0.219,0,0.438-0.12,0.599-0.238c0,0,0-0.021,0.02-0.061
	C230.401,153.717,230.6,153.438,230.52,153.179z"/>
<path opacity="0.5" fill="#FFFFFF" d="M77.722,213.943c-0.48-0.199-0.979-0.12-1.379,0.2c-0.938-0.16-1.776,0.719-1.978,1.557
	c-0.478,1.758,1.638,3.635,3.356,3.156c0.958-0.32,1.578-1.278,1.477-2.317C79.119,215.661,78.6,214.343,77.722,213.943z"/>
<path opacity="0.5" fill="#FFFFFF" d="M84.051,220.533c-0.099-0.32-0.458-0.438-0.74-0.479c-0.478-0.04-1.337,0.757-0.758,1.118
	c0.061,0.08,0.36,0.16,0.36,0.16c0.178,0.159,0.578,0.119,0.818-0.08c0-0.04,0-0.04,0-0.04
	C83.912,221.052,84.131,220.773,84.051,220.533z"/>
<path opacity="0.5" fill="#FFFFFF" d="M180.219,104.097c-0.679-1.179-1.717-0.979-2.655-0.36c-0.28,0.12-0.539,0.3-0.699,0.5
	c-0.059,0.04-0.08,0.12-0.12,0.139c-0.618,0.58-1.078,1.259-1.297,1.718c-0.5,1.118-1.04,3.474,0.199,4.353
	c0.021,0.019,0.021,0.059,0.08,0.12c0.659,0.658,1.717,0.179,2.377-0.24C180.041,109.009,181.438,106.233,180.219,104.097z"/>
<path opacity="0.5" fill="#FFFFFF" d="M180.219,114.3c-0.199-0.459-0.699-0.179-0.979,0.16h-0.02
	c-0.28,0.16-0.698,0.679-0.439,0.958C179.381,116.078,180.579,115.019,180.219,114.3z"/>
<path opacity="0.5" fill="#FFFFFF" d="M25.983,121.27l-0.059-0.021c-0.021-0.059-0.061-0.099-0.08-0.139
	c-0.042-0.04-0.08-0.139-0.101-0.179c-0.119-0.898-0.559-1.599-1.597-1.618c-0.5,0-0.917,0.179-1.318,0.419
	c-0.979,0.3-1.598,1.757-1.658,2.835c-0.04,0.818,0.12,1.757,0.658,2.436c0.519,0.58,1.4,0.521,2.077,0.181l0.02,0.04
	c0.021,0.339,0.581,0.019,0.56-0.2c0-0.099,0-0.16,0-0.24c0.38-0.359,0.739-1.038,0.979-1.776c0.32-0.04,0.779-0.46,0.779-0.74
	c0-0.099,0-0.219-0.02-0.318C26.303,121.689,26.243,121.489,25.983,121.27z"/>
<path opacity="0.5" fill="#FFFFFF" d="M25.144,128.638c-0.359-0.28-0.979,0.379-0.858,0.759c-0.02,0.079-0.02,0.159,0,0.259
	l0.061,0.14c0.02,0.16,0.06,0.279,0.199,0.319c0.101,0.04,0.24,0.08,0.379,0.04c0.34-0.08,0.799-0.399,0.799-0.798
	C25.663,129.018,25.363,128.796,25.144,128.638z"/>
<path opacity="0.5" fill="#FFFFFF" d="M194.517,46.606c-0.418-0.698-1.637,0.16-1.936,0.559c-0.38,0.419-0.54,1.158-0.04,1.458
	c0.04,0.2,0.12,0.36,0.219,0.54c0.28,0.5,1.137-0.179,1.318-0.639c0.04-0.04,0.1-0.059,0.18-0.12c0.238-0.219,0.379-0.519,0.5-0.837
	C194.896,47.206,194.717,46.906,194.517,46.606z"/>
<path opacity="0.5" fill="#8CA4AF" d="M123.009,3.535C56.735,3.535,3,57.25,3,123.526c0,66.255,53.735,120.011,120.009,120.011
	c66.256,0,119.991-53.755,119.991-120.011C243,57.25,189.266,3.535,123.009,3.535z M114.025,211.068
	c-54.835,0-99.304-44.451-99.304-99.303c0-54.854,44.469-99.303,99.304-99.303c54.853,0,99.324,44.449,99.324,99.303
	C213.349,166.617,168.877,211.068,114.025,211.068z"/>
<path opacity="0.3" fill="#C4E8FA" d="M31.135,186.945C14.92,161.347,9.349,138.921,8.23,121.729c0-0.061-0.019-0.12-0.019-0.16
	c-0.66-5.512-0.938-10.963-0.759-16.415c-3.155,17.953-3.296,46.269,14.777,77.438c30.532,52.717,87.422,60.984,116.057,56.111
	C138.286,238.704,68.815,246.491,31.135,186.945z"/>
</svg>
