<?xml version="1.0" encoding="utf-8"?>
<!-- Generator: Adobe Illustrator 16.0.0, SVG Export Plug-In . SVG Version: 6.00 Build 0)  -->
<!DOCTYPE svg PUBLIC "-//W3C//DTD SVG 1.1//EN" "http://www.w3.org/Graphics/SVG/1.1/DTD/svg11.dtd">
<svg version="1.1" id="Layer_1" xmlns="http://www.w3.org/2000/svg" xmlns:xlink="http://www.w3.org/1999/xlink" x="0px" y="0px"
	 width="192.213px" height="189.83px" viewBox="0 0 192.213 189.83" enable-background="new 0 0 192.213 189.83"
	 xml:space="preserve">
<circle fill="#D7DDD0" cx="95.977" cy="92.126" r="91.439"/>
<g opacity="0.2">
	<path fill="#C3CBBD" d="M38.493,98.379c9.268-1.843,19.413-0.501,27.623-6.075c7.634-5.209,11.374-14.558,19.051-19.629
		c4.015-2.661,8.517-3.526,13.229-4.095c5.479-0.614,10.395-1.547,14.692-5.254c1.685-1.456,6.165-5.095,4.322-7.78
		c-1.445-2.115-4.812-2.616-7.132-2.979c-6.869-1.002-14.466-1.025-21.38-0.342c-4.893,0.455-9.465,1.796-13.979,3.662
		c-5.277,2.206-10.27,4.731-15.979,5.572c-9.894,1.411-19.448-0.887-29.205-2.274c-5.231-0.729-10.612-1.184-15.844-0.296
		c-0.648,0.091-1.251,0.205-1.877,0.364C7.33,70.241,4.725,82.341,4.725,95.058c0,8.779,1.239,17.287,3.571,25.317
		c5.39-3.754,10.008-8.418,14.92-12.784C27.722,103.588,32.429,99.629,38.493,98.379z"/>
	<path fill="#C3CBBD" d="M54.982,176.601c3.731-0.91,7.324-2.412,10.623-4.365c5.482-3.277,9.621-7.508,13.887-12.148
		c3.617-3.911,7.789-7.277,12.578-9.643c8.621-4.252,18.242-5.734,27.521-7.892c5.598-1.297,11.125-2.138,16.891-1.708
		c5.312,0.389,10.531,1.502,15.729,2.66c6.106,1.391,12.433,2.938,18.767,3.528c10.258-14.74,16.252-32.666,16.252-51.975
		c0-17.151-4.73-33.21-12.967-46.926c-1.229,2.297-2.695,4.55-4.115,6.801c-2.354,3.754-4.379,7.552-4.971,12.011
		c-0.718,5.186,0.25,10.258,1.409,15.308c1.047,4.548,2.115,9.143,1.524,13.875c-0.524,4.117-2.721,8.804-6.053,11.396
		c-3.74,2.888-9.029,3.981-12.236,7.552c-2.354,2.618-2.024,5.417-2.172,8.69c-0.102,2.457-0.662,4.524-2.127,6.57
		c-2.229,3.071-5.252,5.758-9.268,5.8c-4.164,0.046-8.031-1.727-11.806-3.204c-5.663-2.23-10.794-6.234-16.753-7.621
		c-2.434-0.567-5.562-1.25-8.02-0.388c-1.467,0.522-2.593,1.548-3.833,2.457c-4.07,3.001-9.154,4.775-14.033,6.003
		c-5.027,1.274-10.169,1.594-15.32,1.297c-5.55-0.295-10.678-1.889-15.716-4.138c-5.255-2.369-10.327-4.664-15.844-6.368
		c-3.024-0.956-6.495-0.707-9.624-0.48c-4.104,0.297-8.176,0.865-12.246,1.479c-1.014,0.186-2.024,0.342-3.038,0.526
		C17.929,147.873,34.17,166.118,54.982,176.601z"/>
	<path fill="#C3CBBD" d="M127.451,31.277c2.241-0.75,4.401-1.842,6.743-2.297c2.685-0.5,5.347-1.091,8.099-0.978
		c2.787,0.068,5.504,0.455,8.28,0.614c2.65,0.182,5.244,0.113,7.803-0.113c-3.355-3.163-6.947-6.075-10.748-8.667
		c-7.154,5.597-21.018,6.756-28.318,10.258C121.856,31.71,124.45,32.301,127.451,31.277z"/>
</g>
<path opacity="0.2" fill="#D4D6CE" enable-background="new    " d="M95.446,5.137C45.652,5.137,5.289,45.5,5.289,95.306
	c0,49.781,40.363,90.169,90.157,90.169c49.803,0,90.168-40.39,90.168-90.169C185.615,45.5,145.249,5.137,95.446,5.137z
	 M88.715,161.087c-41.208,0-74.604-33.439-74.604-74.637c0-41.196,33.396-74.594,74.604-74.594s74.617,33.397,74.617,74.594
	S129.922,161.087,88.715,161.087z"/>
<g opacity="1">
	<circle fill="#ccc" cx="40.594" cy="59.026" r="12.883"/>
	<path fill="#909090" d="M28.813,60.128c0-7.115,5.768-12.883,12.882-12.883c3.277,0,6.266,1.226,8.54,3.241
		c-2.36-2.663-5.804-4.343-9.642-4.343c-7.115,0-12.883,5.768-12.883,12.882c0,3.838,1.68,7.282,4.343,9.642
		C30.039,66.395,28.813,63.405,28.813,60.128z"/>
	<path fill="#F5F5F5" d="M41.102,46.144c-0.085,0-0.169,0.005-0.254,0.006c6.997,0.136,12.629,5.847,12.629,12.876
		c0,7.115-5.768,12.883-12.882,12.883c-7.03,0-12.741-5.631-12.876-12.629c-0.002,0.085-0.007,0.169-0.007,0.255
		c0,7.396,5.996,13.391,13.391,13.391c7.396,0,13.391-5.995,13.391-13.391C54.493,52.139,48.498,46.144,41.102,46.144z"/>
</g>
<g opacity="1">
	<circle fill="#ccc" cx="126.153" cy="36.456" r="6.441"/>
	<path fill="#909090" d="M120.265,37.006c0-3.558,2.883-6.441,6.44-6.441c1.638,0,3.133,0.613,4.271,1.621
		c-1.181-1.332-2.902-2.171-4.822-2.171c-3.557,0-6.44,2.884-6.44,6.441c0,1.918,0.841,3.641,2.171,4.821
		C120.876,40.14,120.265,38.645,120.265,37.006z"/>
	<path fill="#F5F5F5" d="M126.408,30.014c-0.042,0-0.084,0.002-0.128,0.003c3.5,0.068,6.314,2.923,6.314,6.438
		c0,3.557-2.884,6.441-6.441,6.441c-3.516,0-6.37-2.815-6.438-6.314c-0.001,0.042-0.003,0.084-0.003,0.127
		c0,3.698,2.998,6.696,6.695,6.696s6.695-2.998,6.695-6.696S130.106,30.014,126.408,30.014z"/>
</g>
<g opacity="0.6">
	<circle fill="#ccc" cx="148.694" cy="101.783" r="16.073"/>
	<path fill="#909090" d="M133.996,103.158c0-8.877,7.196-16.073,16.073-16.073c4.09,0,7.818,1.529,10.656,4.043
		c-2.945-3.322-7.242-5.418-12.029-5.418c-8.877,0-16.074,7.196-16.074,16.073c0,4.789,2.096,9.085,5.418,12.03
		C135.524,110.978,133.996,107.247,133.996,103.158z"/>
	<path fill="#F5F5F5" d="M149.329,85.71c-0.105,0-0.211,0.006-0.316,0.008c8.729,0.169,15.756,7.294,15.756,16.065
		c0,8.877-7.197,16.073-16.074,16.073c-8.771,0-15.896-7.025-16.065-15.756c-0.002,0.106-0.008,0.211-0.008,0.317
		c0,9.228,7.479,16.708,16.708,16.708s16.708-7.48,16.708-16.708C166.037,93.19,158.558,85.71,149.329,85.71z"/>
</g>
<g opacity="0.6">
	<circle fill="#ccc" cx="73.923" cy="129.57" r="9.051"/>
	<path fill="#909090" d="M65.646,130.344c0-4.999,4.052-9.051,9.051-9.051c2.303,0,4.403,0.86,6,2.276
		c-1.659-1.87-4.078-3.051-6.774-3.051c-4.999,0-9.051,4.054-9.051,9.051c0,2.697,1.18,5.117,3.051,6.774
		C66.506,134.747,65.646,132.646,65.646,130.344z"/>
	<path fill="#F5F5F5" d="M74.28,120.519c-0.06,0-0.119,0.004-0.179,0.006c4.916,0.095,8.873,4.106,8.873,9.045
		c0,5-4.053,9.052-9.051,9.052c-4.938,0-8.951-3.957-9.046-8.873c-0.001,0.06-0.004,0.119-0.004,0.179
		c0,5.196,4.212,9.408,9.408,9.408c5.196,0,9.408-4.212,9.408-9.408C83.688,124.731,79.476,120.519,74.28,120.519z"/>
</g>
<g opacity="0.6">
	<circle fill="#ccc" cx="90.758" cy="117.052" r="5.479"/>
	<path fill="#909090" d="M85.748,117.521c0-3.025,2.453-5.479,5.479-5.479c1.394,0,2.665,0.521,3.632,1.378
		c-1.003-1.132-2.468-1.847-4.101-1.847c-3.026,0-5.479,2.453-5.479,5.479c0,1.633,0.714,3.098,1.847,4.102
		C86.268,120.187,85.748,118.915,85.748,117.521z"/>
	<path fill="#F5F5F5" d="M90.974,111.574c-0.037,0-0.072,0.002-0.108,0.002c2.976,0.058,5.371,2.487,5.371,5.476
		c0,3.026-2.453,5.479-5.479,5.479c-2.99,0-5.418-2.396-5.476-5.371c-0.001,0.036-0.003,0.071-0.003,0.108
		c0,3.145,2.549,5.694,5.695,5.694c3.145,0,5.695-2.55,5.695-5.694C96.669,114.123,94.119,111.574,90.974,111.574z"/>
</g>
<g opacity="0.6">
	<circle fill="#ccc" cx="163.539" cy="79.077" r="6.197"/>
	<path fill="#909090" d="M157.872,79.607c0-3.423,2.775-6.197,6.197-6.197c1.576,0,3.014,0.59,4.106,1.559
		c-1.135-1.281-2.792-2.089-4.638-2.089c-3.422,0-6.197,2.774-6.197,6.197c0,1.846,0.809,3.502,2.09,4.638
		C158.461,82.622,157.872,81.184,157.872,79.607z"/>
	<path fill="#F5F5F5" d="M163.783,72.88c-0.041,0-0.081,0.002-0.122,0.003c3.365,0.065,6.074,2.812,6.074,6.194
		c0,3.422-2.774,6.197-6.197,6.197c-3.381,0-6.128-2.709-6.193-6.075c0,0.041-0.004,0.081-0.004,0.123
		c0,3.557,2.885,6.441,6.441,6.441s6.441-2.884,6.441-6.441C170.226,75.764,167.34,72.88,163.783,72.88z"/>
</g>
<g opacity="0.6">
	<circle fill="#ccc" cx="48.846" cy="86.746" r="8.169"/>
	<path fill="#909090" d="M41.376,87.444c0-4.512,3.657-8.169,8.169-8.169c2.078,0,3.974,0.777,5.416,2.055
		c-1.497-1.688-3.681-2.754-6.114-2.754c-4.512,0-8.169,3.658-8.169,8.169c0,2.434,1.065,4.618,2.754,6.114
		C42.153,91.418,41.376,89.522,41.376,87.444z"/>
	<path fill="#F5F5F5" d="M49.169,78.577c-0.055,0-0.108,0.003-0.162,0.004c4.437,0.086,8.008,3.707,8.008,8.165
		c0,4.512-3.657,8.169-8.169,8.169c-4.458,0-8.079-3.571-8.165-8.008c-0.001,0.054-0.004,0.107-0.004,0.161
		c0,4.69,3.801,8.492,8.492,8.492c4.689,0,8.491-3.802,8.491-8.492S53.858,78.577,49.169,78.577z"/>
</g>
<g opacity="0.6">
	<circle fill="#ccc" cx="67.435" cy="56.945" r="6.844"/>
	<path fill="#909090" d="M61.176,57.53c0-3.78,3.064-6.844,6.845-6.844c1.741,0,3.33,0.651,4.537,1.722
		c-1.254-1.415-3.083-2.307-5.123-2.307c-3.78,0-6.844,3.064-6.844,6.844c0,2.039,0.893,3.869,2.307,5.123
		C61.828,60.859,61.176,59.271,61.176,57.53z"/>
	<path fill="#F5F5F5" d="M67.706,50.101c-0.045,0-0.09,0.002-0.135,0.003c3.717,0.072,6.709,3.106,6.709,6.841
		c0,3.78-3.065,6.845-6.845,6.845c-3.735,0-6.769-2.992-6.841-6.709c0,0.045-0.003,0.09-0.003,0.135
		c0,3.929,3.186,7.114,7.115,7.114c3.929,0,7.114-3.186,7.114-7.114C74.819,53.286,71.634,50.101,67.706,50.101z"/>
</g>
<g opacity="0.6">
	<circle fill="#ccc" cx="55.101" cy="134.355" r="4.616"/>
	<path fill="#909090" d="M50.879,134.75c0-2.549,2.067-4.616,4.616-4.616c1.174,0,2.245,0.439,3.06,1.161
		c-0.846-0.954-2.08-1.556-3.454-1.556c-2.55,0-4.616,2.066-4.616,4.615c0,1.375,0.602,2.609,1.556,3.455
		C51.319,136.995,50.879,135.924,50.879,134.75z"/>
	<path fill="#F5F5F5" d="M55.283,129.739c-0.031,0-0.061,0.002-0.091,0.002c2.507,0.049,4.525,2.095,4.525,4.613
		c0,2.549-2.066,4.615-4.615,4.615c-2.519,0-4.565-2.018-4.614-4.525c-0.001,0.031-0.002,0.062-0.002,0.092
		c0,2.65,2.148,4.798,4.798,4.798c2.65,0,4.798-2.147,4.798-4.798S57.933,129.739,55.283,129.739z"/>
</g>
<g opacity="0.6">
	<circle fill="#ccc" cx="105.744" cy="139.335" r="16.074"/>
	<path fill="#909090" d="M91.044,140.71c0-8.877,7.197-16.072,16.074-16.072c4.088,0,7.818,1.528,10.654,4.043
		c-2.943-3.322-7.242-5.418-12.029-5.418c-8.877,0-16.073,7.195-16.073,16.073c0,4.788,2.096,9.085,5.418,12.03
		C92.574,148.528,91.044,144.799,91.044,140.71z"/>
	<path fill="#F5F5F5" d="M106.377,123.263c-0.106,0-0.211,0.006-0.317,0.008c8.73,0.168,15.758,7.293,15.758,16.064
		c0,8.877-7.197,16.074-16.074,16.074c-8.771,0-15.896-7.026-16.065-15.758c-0.002,0.106-0.008,0.212-0.008,0.317
		c0,9.229,7.479,16.708,16.708,16.708s16.708-7.479,16.708-16.708C123.085,130.742,115.604,123.263,106.377,123.263z"/>
</g>
<radialGradient id="SVGID_1_" cx="94.8589" cy="92.1265" r="90.7554" gradientUnits="userSpaceOnUse">
	<stop  offset="0" style="stop-color:#FFFFFF"/>
	<stop  offset="1" style="stop-color:#CCCCCC"/>
</radialGradient>
<circle opacity="0.5" fill="url(#SVGID_1_)" cx="94.859" cy="92.126" r="90.755"/>
<path opacity="0.2" fill="#B1B5AC" d="M95.445,0.868c-50.394,0-91.245,40.851-91.245,91.258c0,50.381,40.851,91.258,91.245,91.258
	c50.405,0,91.258-40.877,91.258-91.258C186.703,41.719,145.851,0.868,95.445,0.868z M88.634,158.702
	c-41.706,0-75.505-33.844-75.505-75.539c0-41.693,33.8-75.494,75.505-75.494c41.705,0,75.516,33.801,75.516,75.494
	C164.15,124.858,130.339,158.702,88.634,158.702z"/>
</svg>
