<?xml version="1.0" encoding="utf-8"?>
<!-- Generator: Adobe Illustrator 16.0.0, SVG Export Plug-In . SVG Version: 6.00 Build 0)  -->
<!DOCTYPE svg PUBLIC "-//W3C//DTD SVG 1.1//EN" "http://www.w3.org/Graphics/SVG/1.1/DTD/svg11.dtd">
<svg version="1.1" id="Layer_1" xmlns="http://www.w3.org/2000/svg" xmlns:xlink="http://www.w3.org/1999/xlink" x="0px" y="0px"
	 width="247.532px" height="247.276px" viewBox="0 0 247.532 247.276" enable-background="new 0 0 247.532 247.276"
	 xml:space="preserve">
<radialGradient id="SVGID_1_" cx="41.418" cy="12.6362" r="267.7527" gradientUnits="userSpaceOnUse">
	<stop  offset="0" style="stop-color:#E4F3FC"/>
	<stop  offset="0.2151" style="stop-color:#42A3DA"/>
	<stop  offset="0.596" style="stop-color:#025E85"/>
	<stop  offset="1" style="stop-color:#2F225C"/>
</radialGradient>
<path fill="url(#SVGID_1_)" d="M244.046,122.023c0,66.856-54.196,121.052-120.994,121.052C56.196,243.075,2,188.88,2,122.023
	C2,55.195,56.196,1,123.052,1C189.85,1,244.046,55.195,244.046,122.023z"/>
<path opacity="0.3" fill="#0A90CF" d="M27.205,167.462c7.455-1.568,14.555-3.225,21.773-6.005
	c10.886-4.141,20.293-9.821,29.167-17.395c6.153-5.236,12.663-9.674,19.289-14.259c7.455-5.207,14.733-10.562,21.773-16.27
	c11.063-8.964,22.187-18.312,34.907-24.82c6.39-3.254,13.075-5.887,20.057-7.632c7.811-1.923,15.857-2.958,23.785-4.556
	c11.183-2.277,22.306-5.177,32.719-9.88c-5.325-10.325-12.069-19.732-19.938-28.045c-2.249,1.332-4.498,2.603-6.746,3.786
	c-14.673,7.958-29.642,15.265-43.368,24.791c-13.253,9.111-23.487,21.329-35.263,32.097c-11.596,10.68-25.322,19.022-39.581,25.737
	c-7.041,3.372-14.378,6.301-21.95,8.372c-8.165,2.248-16.508,3.461-24.85,4.614c-8.342,1.184-16.921,2.396-24.849,5.326
	c-3.254,1.213-6.331,2.721-9.408,4.26c1.775,8.283,4.378,16.211,7.751,23.754C17.324,169.77,22.235,168.556,27.205,167.462z"/>
<g opacity="0.2">
	<path fill="#0A90CF" d="M102.345,183.969c12.306-10.856,26.684-18.755,41.771-25.116c4.674-1.982,9.467-3.667,14.141-5.532
		c1.894-0.68,11.833-4.082,9.585-7.514c-3.018-4.645-9.525-2.367-13.667-0.857c-5.207,1.981-10.177,4.526-15.206,7.011
		c-5.975,2.958-12.425,5.177-18.697,7.426c-8.047,2.839-16.093,5.384-24.375,7.484c-17.691,4.438-35.973,5.769-53.782,9.644
		c-7.987,1.775-15.323,4.319-22.602,8.194l0,0c6.864,11.389,15.62,21.566,25.797,30.085c6.567-1.656,13.193-3.224,19.642-5.265
		C79.92,204.854,90.866,194.116,102.345,183.969z"/>
	<path opacity="0.7" fill="#2181A8" d="M66.491,200.358c6.034-4.526,11.478-9.852,18.163-13.401
		c3.373-1.774,6.805-3.373,10.059-5.295c1.657-1.006,3.373-2.012,4.852-3.254c1.301-1.064,3.727-2.781,4.022-4.497
		c0.592-2.988-9.938,0-11.004,0.326c-4.26,1.212-8.52,2.573-12.839,3.875c-8.106,2.455-16.211,2.662-24.613,3.461
		c-10.59,1.006-23.252,1.953-32.955,7.425c4.969,7.425,10.768,14.258,17.158,20.441c3.372-0.651,6.863-1.124,10.236-1.627
		C55.901,206.777,61.343,204.263,66.491,200.358z"/>
	<path fill="#0A90CF" d="M190.028,115.13c-6.627,2.189-13.845,4.112-19.406,8.431c-1.42,1.066-2.663,2.337-3.846,3.698
		c-0.65,0.769-1.479,1.745,0,2.012c3.076,0.473,6.567,0.443,9.585-0.326c6.862-1.804,12.838-5.739,19.406-8.283
		c6.094-2.366,12.78-3.224,19.169-4.23c6.805-1.064,13.607-2.011,20.412-3.431c2.722-0.562,5.444-1.212,8.224-1.982
		c-0.77-8.224-2.366-16.27-4.673-23.961c-9.526,7.454-21.063,12.661-30.885,19.524C202.452,110.485,196.536,113,190.028,115.13z"/>
	<path fill="#0A90CF" d="M66.55,224.142c8.698-0.769,17.513,0.177,26.209-1.006c17.396-2.337,34.317-9.644,49.758-17.72
		c14.318-7.514,28.459-16.241,41.476-25.826c12.661-9.348,22.66-21.654,36.505-29.375c7.099-3.935,14.555-7.071,22.127-9.792
		c0.828-5.503,1.301-11.153,1.42-16.863c-5.444,3.226-10.71,6.627-16.035,10.029c-9.289,6.005-18.755,11.211-28.754,16.033
		c-13.489,6.567-25.263,15.561-35.439,26.625c-4.91,5.384-9.881,10.561-15.915,14.821c-5.799,4.112-12.069,7.514-18.578,10.294
		c-14.673,6.242-30.233,10.206-45.38,15.028c-7.75,2.514-15.323,5.265-23.666,5.059c-2.248-0.089-4.555-0.267-6.863-0.414
		c2.07,1.449,4.26,2.839,6.389,4.17C62.052,224.733,64.302,224.349,66.55,224.142z"/>
	<path fill="#0A90CF" d="M225.349,172.136c-11.301,10.354-20.413,22.542-30.707,33.783c-4.437,4.852-9.289,9.407-14.911,12.869
		c-6.33,3.875-13.311,6.685-20.411,8.756c-22.483,6.537-46.623,6.094-69.459,10.886c10.531,3.017,21.654,4.645,33.19,4.645
		c52.717,0,97.564-33.753,114.13-80.791C233.101,165.391,229.076,168.674,225.349,172.136z"/>
	<path fill="#0A90CF" d="M176.064,73.567c5.147,2.188,12.307-0.385,17.277-1.953c6.448-1.953,12.78-4.556,19.347-6.006
		c5.502-1.213,11.182-0.946,16.744-1.183c-4.319-8.017-9.585-15.501-15.56-22.305C200.323,51.587,184.881,59.426,176.064,73.567z"/>
	<path fill="#0A90CF" d="M179.023,17.448c-4.615,1.804-9.11,4.023-13.43,6.804c-5.326,3.461-10.355,7.484-15.146,11.656
		c-4.497,3.935-8.816,8.283-13.667,11.774c-9.585,6.893-20.826,10.117-32.304,12.099c-13.253,2.278-27.985,2.781-39.877,9.584
		c-9.644,5.473-17.1,13.786-23.962,22.335c-11.183,13.993-22.069,29.997-38.398,37.718c0.118,1.656,0.236,3.254,0.414,4.852
		c13.963-9.141,26.979-19.554,38.458-31.979c9.88-10.768,20.175-21.092,33.723-27.275c6.331-2.84,12.898-4.792,19.82-5.561
		c7.633-0.857,15.325-1.154,23.016-2.041c7.869-0.888,15.739-2.396,22.956-5.769c7.692-3.64,14.851-8.667,22.306-12.898
		c12.011-6.923,24.258-13.579,36.15-20.797c-4.141-3.342-8.46-6.448-13.017-9.23C183.697,18.306,181.33,17.862,179.023,17.448z"/>
	<path fill="#0A90CF" d="M64.598,150.156c-11.598-2.781-24.259-2.84-36.032-0.799c-7.218,1.242-15.028,3.284-21.536,7.159
		c1.301,4.556,2.899,8.934,4.733,13.253c5.976-2.101,12.365-3.313,18.104-4.645C41.997,162.344,55.723,159.504,64.598,150.156z"/>
	<path fill="#0A90CF" d="M3.953,118.118c4.083-9.585,9.289-18.845,15.087-27.453c5.679-8.46,11.774-17.395,19.583-24.08
		c6.035-5.177,12.899-9.111,20.234-12.011c13.135-5.236,27.217-7.455,39.995-13.667c13.491-6.568,25.797-15.442,39.642-21.418
		c6.153-2.663,12.78-4.852,19.525-5.147c7.041-0.267,13.963,0.739,20.884,1.893c0.06,0,0.06,0,0.119,0.03
		c0.532-0.207,1.124-0.444,1.656-0.622c-5.856-3.195-12.069-5.917-18.458-8.135c-19.879,4.142-39.818,8.194-59.106,14.732
		c-10.177,3.461-19.939,7.869-30.235,11.123c-10.116,3.225-20.352,6.301-30.41,9.821c-5.444,1.953-10.946,3.994-16.33,6.331
		C10.993,69.721,2,94.837,2,122.023c0,0.295,0,0.591,0,0.857C2.651,121.283,3.302,119.686,3.953,118.118z"/>
</g>
<path opacity="0.7" fill="#0A90CF" d="M123.052,1C56.196,1,2,55.195,2,122.023c0,66.856,54.196,121.052,121.052,121.052
	c66.798,0,120.994-54.195,120.994-121.052C244.046,55.195,189.85,1,123.052,1z M114,210.327
	c-55.319,0-100.166-44.847-100.166-100.167S58.68,10.022,114,10.022c55.321,0,100.168,44.818,100.168,100.138
	S169.32,210.327,114,210.327z"/>
<path opacity="0.4" fill="#C4E8FA" d="M30.399,185.98c-16.388-25.855-22.009-48.427-23.133-65.762c0-0.059,0-0.119,0-0.177
	c-0.709-5.503-0.947-11.064-0.769-16.537c-3.195,18.104-3.313,46.652,14.909,78.098c30.766,53.16,88.157,61.532,117.03,56.592
	C138.436,238.194,68.384,246.062,30.399,185.98z"/>
</svg>
