<?xml version="1.0" encoding="utf-8"?>
<!-- Generator: Adobe Illustrator 16.0.0, SVG Export Plug-In . SVG Version: 6.00 Build 0)  -->
<!DOCTYPE svg PUBLIC "-//W3C//DTD SVG 1.1//EN" "http://www.w3.org/Graphics/SVG/1.1/DTD/svg11.dtd">
<svg version="1.1" xmlns="http://www.w3.org/2000/svg" xmlns:xlink="http://www.w3.org/1999/xlink" x="0px" y="0px"
	 width="387.232px" height="246.214px" viewBox="0 0 387.232 246.214" enable-background="new 0 0 387.232 246.214"
	 xml:space="preserve">
<g id="Layer_2">
</g>
<g id="Layer_1">
	<g>
		<path opacity="0.4" fill="#FFDBB3" enable-background="new    " d="M227.017,7.871c-2.738,3.95-5.478,7.927-8.216,11.907
			c-4.094,5.967-8.273,11.373-14.068,15.827c-5.853,4.526-12.311,8.129-18.854,11.546c-7.035,3.676-14.012,7.438-21.189,10.882
			C139.377,70.227,111.53,79.597,83.305,78.3c-1.498,3.719-2.817,7.538-3.928,11.431c15.834,4.886,33.708,3.042,49.594-0.259
			c29.174-6.025,57.168-17.225,81.643-34.263c11.503-7.986,22.603-16.851,32.895-26.393c3.2-2.984,6.718-6.242,9.976-9.745
			C245.208,14.329,236.358,10.537,227.017,7.871z"/>
		<path opacity="0.4" fill="#FFDBB3" enable-background="new    " d="M121.36,63.668c8.043-2.104,15.539-5.708,23.293-8.634
			c6.632-2.479,13.521-4.007,20.183-6.328c21.967-7.683,45.403-20.785,55.841-42.45c-8.562-1.961-17.441-3.013-26.58-3.013
			c-45.232,0-84.584,25.182-104.821,62.314C100.027,65.601,110.981,66.379,121.36,63.668z"/>
		<path opacity="0.4" fill="#FFDBB3" enable-background="new    " d="M108.963,112.765c12.425,0.014,24.245-2.739,35.979-6.646
			c7.871-2.624,15.625-5.607,23.408-8.519c7.554-2.84,15.251-5.348,22.688-8.548c13.377-5.78,26.031-13.088,37.736-21.737
			c14.876-10.983,28.195-23.711,41.023-36.958c-2.652-2.176-5.391-4.252-8.215-6.198c-1.529,1.326-3.028,2.624-4.585,3.892
			c-9.023,7.524-18.221,14.977-27.445,22.256c-16.433,12.944-34.565,23.092-53.823,31.164
			c-18.826,7.885-38.285,14.963-58.319,19.171c-9.571,2.018-19.634,3.618-29.465,2.797c-3.775-0.303-7.689-0.981-11.222-2.393
			c-0.721,3.819-1.211,7.726-1.527,11.676C86.39,111.381,97.719,112.75,108.963,112.765z"/>
		<path opacity="0.4" fill="#FFDBB3" enable-background="new    " d="M84.949,160.216c7.554-0.129,15.105-1.082,22.572-2.264
			c6.805-1.08,13.607-2.377,20.382-3.703c7.727-1.527,15.223-2.422,23.121-2.537c8.477-0.131,16.895-0.549,24.908-3.531
			c7.841-2.896,15.105-7.165,22.198-11.518c13.838-8.434,28.223-15.828,41.83-24.591c13.551-8.735,27.532-18.018,36.959-31.353
			c5.766-8.158,10.319-17.052,15.625-25.499c-2.22-3.243-4.556-6.371-7.092-9.369c-0.146,0.417-0.287,0.821-0.433,1.239
			c-2.104,6.616-4.037,13.766-8.072,19.518c-8.303,11.834-21.16,19.762-33.325,27.085c-13.177,7.913-26.148,16.23-39.496,23.827
			c-13.693,7.784-28.225,15.034-43.791,18.004c-17.614,3.357-35.748,4.627-53.593,6.053c-8.331,0.678-16.375,2.09-24.592,3.459
			c-1.68,0.289-3.408,0.549-5.125,0.764c0.98,4.931,2.277,9.76,3.835,14.459C82.296,160.274,83.68,160.246,84.949,160.216z"/>
		<path opacity="0.4" fill="#FFDBB3" enable-background="new    " d="M136.12,203.186c8.532,0.491,17.125,1.168,25.629,0.274
			c7.438-0.765,14.674-2.422,21.766-4.742c7.18-2.35,14.156-5.174,21.161-7.942c7.034-2.812,14.212-5.291,21.247-8.116
			c12.915-5.246,25.514-11.445,37.391-18.709c19.057-11.646,37.334-26.248,50.047-44.771c-0.145-4.541-0.519-8.98-1.124-13.391
			c-3.575,6.4-7.958,12.209-13.493,17.197c-16.979,15.424-37.39,26.176-56.965,37.91c-13.317,7.984-26.522,16.374-40.851,22.543
			c-15.28,6.573-31.308,9.484-47.74,11.85c-15.941,2.305-32.979,3.948-48.837,0c-2.074-0.52-4.149-1.14-6.168-1.76
			c2.363,3.244,4.958,6.355,7.668,9.34C115.911,202.207,126.03,202.639,136.12,203.186z"/>
		<path opacity="0.4" fill="#FFDBB3" enable-background="new    " d="M296.264,172.901c-18.364,24.519-47.337,37.406-75.445,47.366
			c-8.014,2.84-16.027,5.305-24.476,6.4c-8.734,1.139-17.557,1.297-26.321,0.764c-13.605-0.807-27.098-2.896-40.619-4.569
			c18.652,12.05,40.852,19.042,64.692,19.042c55.034,0,101.333-37.248,115.143-87.914
			C304.971,160.318,300.848,166.804,296.264,172.901z"/>
	</g>
	<path opacity="0.6" fill="#DDB654" enable-background="new    " d="M192.595,3.244c-65.903,0-119.33,53.434-119.33,119.337
		c0,65.903,53.427,119.323,119.33,119.323c65.902,0,119.321-53.42,119.321-119.323C311.916,56.678,258.498,3.244,192.595,3.244z
		 M183.658,209.628c-54.516,0-98.739-44.209-98.739-98.752c0-54.544,44.224-98.768,98.739-98.768
		c54.543,0,98.768,44.224,98.768,98.768C282.426,165.419,238.202,209.628,183.658,209.628z"/>
	<path opacity="0.4" fill="#FCD7B9" enable-background="new    " d="M102.236,185.644c-16.114-25.484-21.687-47.756-22.753-64.865
		c-0.028-0.057-0.028-0.116-0.043-0.159c-0.648-5.449-0.923-10.896-0.765-16.316c-3.114,17.83-3.257,46.01,14.71,77.029
		c30.328,52.383,86.918,60.643,115.373,55.756C208.759,237.089,139.713,244.858,102.236,185.644z"/>
	
		<linearGradient id="SVGID_1_" gradientUnits="userSpaceOnUse" x1="54.6707" y1="92.8013" x2="32.1898" y2="154.0615" gradientTransform="matrix(1 0 0 -1 0.1401 245.2686)">
		<stop  offset="0" style="stop-color:#E5E0DF"/>
		<stop  offset="1" style="stop-color:#D5BE9B"/>
	</linearGradient>
	<path opacity="0.1" fill="url(#SVGID_1_)" d="M40.824,134.935c-7.164,8.417-21.78,25.557-14.012,37.261
		c6.963,10.509,23.741,9.269,34.639,8.923c1.888-0.06,3.775-0.131,5.649-0.246c-19.128,0-31.726-3.849-34.753-11.951
		c-4.382-11.689,12.151-29.838,41.947-49.21c0.086-3.229,0.288-6.429,0.604-9.571c-10.22,6.141-19.561,12.295-27.835,18.35
		C44.875,130.537,42.77,132.656,40.824,134.935z"/>
	<linearGradient id="SVGID_2_" gradientUnits="userSpaceOnUse" x1="143.97" y1="7.4326" x2="237.7515" y2="227.3727">
		<stop  offset="0.0476" style="stop-color:#CF9D8B"/>
		<stop  offset="0.2034" style="stop-color:#EFB072"/>
		<stop  offset="0.4598" style="stop-color:#C99080"/>
		<stop  offset="0.4962" style="stop-color:#CD9786"/>
		<stop  offset="0.5492" style="stop-color:#D6AA97"/>
		<stop  offset="0.6119" style="stop-color:#E6CAB3"/>
		<stop  offset="0.6243" style="stop-color:#EAD1B9"/>
		<stop  offset="0.7398" style="stop-color:#F3D7A8"/>
		<stop  offset="0.8728" style="stop-color:#FADC9B"/>
		<stop  offset="1" style="stop-color:#FCDD97"/>
	</linearGradient>
	<path fill="url(#SVGID_2_)" d="M311.432,122.247c0,65.449-53.053,118.504-118.503,118.504c-65.45,0-118.51-53.055-118.51-118.504
		c0-65.451,53.061-118.518,118.51-118.518C258.379,3.729,311.432,56.796,311.432,122.247z"/>
	<g>
		<path opacity="0.4" fill="#DDB994" d="M225.439,9.191c-2.721,3.922-5.439,7.873-8.16,11.824
			c-4.064,5.927-8.215,11.295-13.971,15.718c-5.812,4.495-12.226,8.074-18.725,11.467c-6.986,3.65-13.914,7.387-21.043,10.808
			c-25.138,12.111-52.796,21.416-80.825,20.127c-1.489,3.693-2.799,7.487-3.901,11.353c15.725,4.853,33.477,3.021,49.252-0.258
			c28.975-5.984,56.775-17.107,81.082-34.028c11.424-7.931,22.447-16.735,32.67-26.211c3.176-2.963,6.67-6.199,9.904-9.677
			C243.505,15.604,234.716,11.839,225.439,9.191z"/>
		<path opacity="0.4" fill="#DDB994" d="M120.507,64.606c7.988-2.09,15.432-5.669,23.134-8.576
			c6.585-2.462,13.428-3.979,20.042-6.284c21.816-7.63,45.094-20.643,55.457-42.159c-8.502-1.947-17.32-2.992-26.397-2.992
			c-44.921,0-84.002,25.009-104.102,61.885C99.321,66.524,110.2,67.297,120.507,64.606z"/>
		<path opacity="0.4" fill="#DDB994" d="M108.196,113.364c12.339,0.015,24.078-2.72,35.731-6.599
			c7.817-2.605,15.518-5.569,23.249-8.46c7.5-2.82,15.146-5.311,22.532-8.489c13.286-5.74,25.854-12.999,37.477-21.587
			c14.773-10.909,28.002-23.549,40.742-36.705c-2.633-2.161-5.354-4.223-8.16-6.156c-1.518,1.317-3.006,2.605-4.553,3.866
			c-8.961,7.473-18.094,14.874-27.256,22.103c-16.318,12.855-34.328,22.934-53.453,30.95c-18.697,7.831-38.022,14.859-57.921,19.04
			c-9.505,2.004-19.498,3.593-29.261,2.777c-3.751-0.3-7.637-0.974-11.145-2.377c-0.715,3.794-1.203,7.673-1.518,11.596
			C85.777,111.99,97.03,113.35,108.196,113.364z"/>
		<path opacity="0.4" fill="#DDB994" d="M84.346,160.49c7.501-0.127,15.002-1.071,22.418-2.246
			c6.757-1.075,13.513-2.363,20.241-3.68c7.673-1.518,15.117-2.405,22.962-2.519c8.417-0.13,16.778-0.544,24.737-3.508
			c7.787-2.877,15.002-7.115,22.046-11.438c13.742-8.374,28.029-15.719,41.545-24.423c13.455-8.675,27.342-17.895,36.703-31.136
			c5.727-8.103,10.25-16.935,15.518-25.324c-2.205-3.221-4.523-6.327-7.043-9.305c-0.143,0.416-0.285,0.816-0.43,1.231
			c-2.09,6.571-4.008,13.672-8.016,19.384c-8.246,11.752-21.016,19.626-33.098,26.898c-13.084,7.86-25.969,16.12-39.225,23.664
			c-13.6,7.73-28.03,14.93-43.49,17.88c-17.494,3.336-35.502,4.594-53.225,6.012c-8.274,0.673-16.263,2.076-24.423,3.436
			c-1.667,0.287-3.385,0.544-5.089,0.759c0.975,4.897,2.263,9.691,3.809,14.359C81.713,160.548,83.087,160.52,84.346,160.49z"/>
		<path opacity="0.4" fill="#DDB994" d="M135.166,203.166c8.475,0.485,17.007,1.159,25.453,0.271
			c7.387-0.758,14.574-2.405,21.617-4.71c7.128-2.333,14.057-5.14,21.014-7.888c6.986-2.791,14.115-5.253,21.102-8.06
			c12.828-5.21,25.338-11.366,37.135-18.582c18.924-11.566,37.078-26.068,49.703-44.463c-0.143-4.509-0.516-8.918-1.117-13.299
			c-3.549,6.356-7.902,12.125-13.398,17.078c-16.863,15.318-37.135,25.997-56.574,37.65c-13.227,7.931-26.342,16.263-40.57,22.39
			c-15.174,6.528-31.094,9.419-47.413,11.768c-15.833,2.29-32.754,3.923-48.501,0c-2.062-0.517-4.123-1.132-6.127-1.747
			c2.348,3.221,4.924,6.313,7.615,9.276C115.095,202.192,125.145,202.621,135.166,203.166z"/>
		<path opacity="0.4" fill="#DDB994" d="M294.21,173.089c-18.238,24.351-47.012,37.148-74.928,47.04
			c-7.957,2.82-15.918,5.269-24.307,6.355c-8.675,1.133-17.436,1.289-26.14,0.759c-13.514-0.801-26.913-2.878-40.341-4.537
			c18.525,11.968,40.571,18.911,64.248,18.911c54.657,0,100.637-36.992,114.352-87.311
			C302.857,160.59,298.763,167.032,294.21,173.089z"/>
	</g>
	<path opacity="0.2" fill="#E0CEA6" d="M193.62,0c-65.449,0-118.51,53.067-118.51,118.518c0,65.45,53.061,118.504,118.51,118.504
		c65.45,0,118.503-53.055,118.503-118.504C312.123,53.068,259.071,0,193.62,0z M184.745,204.968
		c-54.142,0-98.062-43.904-98.062-98.075c0-54.169,43.92-98.089,98.062-98.089c54.169,0,98.089,43.919,98.089,98.089
		C282.834,161.064,238.914,204.968,184.745,204.968z"/>
	<path opacity="0.4" fill="#FCD7B8" d="M102.198,184.875c-16.004-25.309-21.538-47.427-22.597-64.419
		c-0.029-0.057-0.029-0.114-0.043-0.157c-0.644-5.411-0.916-10.822-0.758-16.205c-3.092,17.708-3.236,45.695,14.609,76.502
		c30.12,52.022,86.322,60.224,114.582,55.371C207.99,235.967,139.418,243.685,102.198,184.875z"/>
	
		<linearGradient id="SVGID_3_" gradientUnits="userSpaceOnUse" x1="228.6516" y1="16.5503" x2="188.1828" y2="146.9479" gradientTransform="matrix(1 0 0 -1 0.1401 245.2686)">
		<stop  offset="0.11" style="stop-color:#C99E8A"/>
		<stop  offset="0.2546" style="stop-color:#E5E0DF"/>
		<stop  offset="0.542" style="stop-color:#C89D87"/>
		<stop  offset="0.8012" style="stop-color:#D8C2B7"/>
		<stop  offset="1" style="stop-color:#C99E8A"/>
	</linearGradient>
	<path opacity="0.5" fill="url(#SVGID_3_)" enable-background="new    " d="M382.966,48.178
		c-7.235-19.401-50.22-22.702-108.453-11.589c2.277,2.119,4.525,4.339,6.688,6.63c38.485-6.112,65.44-3.604,70.054,8.764
		c4.296,11.502-11.618,29.233-40.533,48.259c-25.945,17.082-62.356,35.201-104.015,50.753
		c-44.311,16.562-86.083,27.013-117.68,30.545c-31.113,3.473-52.331,0.216-56.368-10.625c-4.382-11.69,12.151-29.838,41.947-49.211
		c0.086-3.229,0.288-6.429,0.604-9.571c-48.027,28.759-75.978,57.978-69.002,76.7c6.774,18.148,44.771,22.213,97.291,13.593
		c32.691-5.361,71.063-15.667,110.991-30.572c37.536-14.011,71.352-30.198,98.739-46.517
		C361.72,96.424,390.001,67.018,382.966,48.178z"/>
	<path opacity="0.3" fill="#F9F8F7" enable-background="new    " d="M364.521,42.451c-18.248-13.881-48.72-8.62-48.72-8.62
		s55.091,0.75,44.223,24.36c-9.051,19.604-33.845,38.531-54.658,51.331c1.585-0.692,3.171-1.384,4.698-2.162
		C338.316,90.537,385.22,58.234,364.521,42.451z"/>
	<path opacity="0.3" fill="#F9F8F7" enable-background="new    " d="M58.568,126.011c0,0-55.64,30.343-47.222,55.654
		c8.433,25.283,74.775,22.486,172.534-6.185c0,0-109.384,28.47-146.875,15.366C-0.459,177.73,23.901,149.998,58.568,126.011z"/>
</g>
</svg>
