<?xml version="1.0" encoding="utf-8"?>
<!-- Generator: Adobe Illustrator 16.0.0, SVG Export Plug-In . SVG Version: 6.00 Build 0)  -->
<!DOCTYPE svg PUBLIC "-//W3C//DTD SVG 1.1//EN" "http://www.w3.org/Graphics/SVG/1.1/DTD/svg11.dtd">
<svg version="1.1" id="Layer_1" xmlns="http://www.w3.org/2000/svg" xmlns:xlink="http://www.w3.org/1999/xlink" x="0px" y="0px"
	 width="248.597px" height="348.008px" viewBox="0 0 248.597 348.008" enable-background="new 0 0 248.597 348.008"
	 xml:space="preserve">
<g>
	
		<radialGradient id="SVGID_1_" cx="118.4795" cy="-87.2432" r="268.0784" gradientTransform="matrix(0.3252 0.9456 -0.9456 0.3252 71.1189 -2.1307)" gradientUnits="userSpaceOnUse">
		<stop  offset="0" style="stop-color:#E4F3FC"/>
		<stop  offset="0.2836" style="stop-color:#3CB9CA"/>
		<stop  offset="0.337" style="stop-color:#39B4C7"/>
		<stop  offset="0.4132" style="stop-color:#2FA8C1"/>
		<stop  offset="0.503" style="stop-color:#1F94B6"/>
		<stop  offset="0.5978" style="stop-color:#017DA8"/>
		<stop  offset="0.6954" style="stop-color:#096D96"/>
		<stop  offset="0.8737" style="stop-color:#0D4E76"/>
	</radialGradient>
	<path fill="url(#SVGID_1_)" d="M163.179,286.51c-62.769,21.618-131.198-11.794-152.753-74.589
		C-11.18,149.137,22.194,80.728,84.984,59.147c62.8-21.596,131.208,11.779,152.805,74.579
		C259.385,196.526,225.979,264.914,163.179,286.51z"/>
	<g>
		<g>
			
				<radialGradient id="SVGID_2_" cx="118.4795" cy="-87.2432" r="268.0784" gradientTransform="matrix(0.3252 0.9456 -0.9456 0.3252 71.1189 -2.1307)" gradientUnits="userSpaceOnUse">
				<stop  offset="0" style="stop-color:#E4F3FC"/>
				<stop  offset="0.2836" style="stop-color:#3CB9CA"/>
				<stop  offset="0.337" style="stop-color:#39B4C7"/>
				<stop  offset="0.4132" style="stop-color:#2FA8C1"/>
				<stop  offset="0.503" style="stop-color:#1F94B6"/>
				<stop  offset="0.5978" style="stop-color:#017DA8"/>
				<stop  offset="0.6954" style="stop-color:#096D96"/>
				<stop  offset="0.8737" style="stop-color:#0D4E76"/>
			</radialGradient>
			<path fill="url(#SVGID_2_)" d="M163.179,286.51c-62.769,21.618-131.198-11.794-152.753-74.589
				C-11.18,149.137,22.194,80.728,84.984,59.147c62.8-21.596,131.208,11.779,152.805,74.579
				C259.385,196.526,225.979,264.914,163.179,286.51z"/>
			
				<radialGradient id="SVGID_3_" cx="98.8379" cy="-95.5317" r="268.1094" gradientTransform="matrix(0.3252 0.9456 -0.9456 0.3252 71.1189 -2.1307)" gradientUnits="userSpaceOnUse">
				<stop  offset="0" style="stop-color:#E4F3FC"/>
				<stop  offset="0.2836" style="stop-color:#3CB9CA"/>
				<stop  offset="0.415" style="stop-color:#32B3C5"/>
				<stop  offset="0.5976" style="stop-color:#00A6B8"/>
				<stop  offset="0.6502" style="stop-color:#0496AB"/>
				<stop  offset="0.7605" style="stop-color:#0D7190"/>
				<stop  offset="0.8737" style="stop-color:#0D4E76"/>
			</radialGradient>
			<path opacity="0.3" fill="url(#SVGID_3_)" d="M161.151,87.989c1.838,9.469,5.597,18.836,9.469,27.625
				c4.04,9.215,8.705,18.237,14.33,26.563c10.215,15.083,22.984,28.295,34.23,42.575c6.24,7.945,12.657,15.216,20.751,20.168
				c1.767-6.326,3.011-12.818,3.723-19.396c-2.892,0.135-5.708,0.294-8.036-0.214c-8.539-1.836-14.561-10.382-20.214-16.354
				c-7.346-7.777-15.288-15.406-21.57-24.102c-6.335-8.754-10.824-18.449-14.196-28.735c-1.897-5.778-16.293-44.61-7.559-53.533
				c-6.275-2.727-12.812-4.926-19.492-6.567C159.078,64.672,159.24,77.951,161.151,87.989z"/>
			
				<radialGradient id="SVGID_4_" cx="98.8345" cy="-95.5151" r="267.9453" gradientTransform="matrix(0.3252 0.9456 -0.9456 0.3252 71.1189 -2.1307)" gradientUnits="userSpaceOnUse">
				<stop  offset="0" style="stop-color:#E4F3FC"/>
				<stop  offset="0.2836" style="stop-color:#3CB9CA"/>
				<stop  offset="0.415" style="stop-color:#32B3C5"/>
				<stop  offset="0.5976" style="stop-color:#00A6B8"/>
				<stop  offset="0.6502" style="stop-color:#0496AB"/>
				<stop  offset="0.7605" style="stop-color:#0D7190"/>
				<stop  offset="0.8737" style="stop-color:#0D4E76"/>
			</radialGradient>
			<path opacity="0.3" fill="url(#SVGID_4_)" d="M163.538,93.439c-0.7-8.056,0.898-16.167-1.01-24.101
				c-0.892-3.824-2.056-7.58-3.051-11.382c-2.287-0.707-4.562-1.362-6.89-1.938c6.491,8.654,6.654,21.934,8.565,31.971
				c0.777,3.996,1.91,7.935,3.208,11.826C164.013,97.687,163.749,95.568,163.538,93.439z"/>
			
				<radialGradient id="SVGID_5_" cx="98.8643" cy="-95.5229" r="268.0661" gradientTransform="matrix(0.3252 0.9456 -0.9456 0.3252 71.1189 -2.1307)" gradientUnits="userSpaceOnUse">
				<stop  offset="0" style="stop-color:#E4F3FC"/>
				<stop  offset="0.2836" style="stop-color:#3CB9CA"/>
				<stop  offset="0.415" style="stop-color:#32B3C5"/>
				<stop  offset="0.5976" style="stop-color:#00A6B8"/>
				<stop  offset="0.6502" style="stop-color:#0496AB"/>
				<stop  offset="0.7605" style="stop-color:#0D7190"/>
				<stop  offset="0.8737" style="stop-color:#0D4E76"/>
			</radialGradient>
			<path opacity="0.3" fill="url(#SVGID_5_)" d="M241.562,198.187c-2.642-0.989-5.148-2.655-7.279-4.275
				c-5.036-3.777-9.403-8.218-14-12.45c-2.57-2.386-5.254-4.533-7.534-7.223c-2.811-3.383-5.353-7.172-8.727-9.981
				c-1.629-1.354-3.343-2.584-5.056-3.746c6.7,8.07,13.724,15.993,20.214,24.24c6.24,7.945,12.657,15.216,20.751,20.168
				C240.555,202.691,241.095,200.452,241.562,198.187z"/>
			
				<radialGradient id="SVGID_6_" cx="98.8325" cy="-95.3848" r="267.4363" gradientTransform="matrix(0.3252 0.9456 -0.9456 0.3252 71.1189 -2.1307)" gradientUnits="userSpaceOnUse">
				<stop  offset="0" style="stop-color:#E4F3FC"/>
				<stop  offset="0.2836" style="stop-color:#3CB9CA"/>
				<stop  offset="0.415" style="stop-color:#32B3C5"/>
				<stop  offset="0.5976" style="stop-color:#00A6B8"/>
				<stop  offset="0.6502" style="stop-color:#0496AB"/>
				<stop  offset="0.7605" style="stop-color:#0D7190"/>
				<stop  offset="0.8737" style="stop-color:#0D4E76"/>
			</radialGradient>
			<path opacity="0.5" fill="url(#SVGID_6_)" d="M146.253,65.543c-0.65-1.607-1.522,1.542-1.709,2.298
				c-0.415,1.983-0.694,3.966-0.775,5.991c-0.131,2.917-0.232,5.922,0.147,8.818c0.462,3.652,3.035,7.396,5.01,10.403
				c1.747,2.675,3.754,5.976,6.502,7.825c-0.043-0.752-0.148-1.544-0.305-2.327C150.757,88.127,150.648,75.99,146.253,65.543z"/>
			
				<radialGradient id="SVGID_7_" cx="98.8467" cy="-95.5732" r="268.1105" gradientTransform="matrix(0.3252 0.9456 -0.9456 0.3252 71.1189 -2.1307)" gradientUnits="userSpaceOnUse">
				<stop  offset="0" style="stop-color:#E4F3FC"/>
				<stop  offset="0.2836" style="stop-color:#3CB9CA"/>
				<stop  offset="0.415" style="stop-color:#32B3C5"/>
				<stop  offset="0.5976" style="stop-color:#00A6B8"/>
				<stop  offset="0.6502" style="stop-color:#0496AB"/>
				<stop  offset="0.7605" style="stop-color:#0D7190"/>
				<stop  offset="0.8737" style="stop-color:#0D4E76"/>
			</radialGradient>
			<path opacity="0.3" fill="url(#SVGID_7_)" d="M78.171,95.015c2.092,12.009,4.694,23.862,7.621,35.704
				c5.455,22.311,12.003,44.13,21.776,64.976c5.222,11.108,10.975,21.959,16.687,32.807c5.136,9.74,10.334,19.251,13.645,29.835
				c3.227,10.37,6.923,20.17,13.581,28.845c0.606,0.787,1.203,1.522,1.83,2.278c3.287-0.865,6.583-1.813,9.869-2.95
				c5.519-1.911,10.828-4.188,15.897-6.782c-0.868-1.209-1.726-2.435-2.573-3.676c-3.304-4.75-6.773-9.112-11.339-12.781
				c-4.209-3.386-8.69-6.365-12.869-9.798c-17.666-14.413-27.76-34.432-36.261-55.153c-10.018-24.419-18.23-49.582-24.346-75.247
				c-2.801-11.758-3.868-22.861-3.862-34.9c-0.028-6.073,0.006-12.105-1.076-18.089c-0.63-3.605-1.449-7.2-2.121-10.81
				c-3.275,1.12-6.478,2.403-9.565,3.784C76.34,73.711,76.3,84.373,78.171,95.015z"/>
			
				<radialGradient id="SVGID_8_" cx="98.8271" cy="-95.5718" r="268.1774" gradientTransform="matrix(0.3252 0.9456 -0.9456 0.3252 71.1189 -2.1307)" gradientUnits="userSpaceOnUse">
				<stop  offset="0" style="stop-color:#E4F3FC"/>
				<stop  offset="0.2836" style="stop-color:#3CB9CA"/>
				<stop  offset="0.415" style="stop-color:#32B3C5"/>
				<stop  offset="0.5976" style="stop-color:#00A6B8"/>
				<stop  offset="0.6502" style="stop-color:#0496AB"/>
				<stop  offset="0.7605" style="stop-color:#0D7190"/>
				<stop  offset="0.8737" style="stop-color:#0D4E76"/>
			</radialGradient>
			<path opacity="0.5" fill="url(#SVGID_8_)" d="M83.561,72.978c-1.923-2.408-2.892,7.069-2.892,7.34
				c0.013,2.088,0.129,4.153,0.352,6.199c0.613,6.282,1.267,12.093,3.893,17.862c0.407-0.611,0.75-1.332,0.978-2.151
				c0.056-6.2-0.348-12.388-0.742-18.592C84.917,80.657,85.473,75.401,83.561,72.978z"/>
			
				<radialGradient id="SVGID_9_" cx="98.8164" cy="-95.48" r="268.0916" gradientTransform="matrix(0.3252 0.9456 -0.9456 0.3252 71.1189 -2.1307)" gradientUnits="userSpaceOnUse">
				<stop  offset="0" style="stop-color:#E4F3FC"/>
				<stop  offset="0.2836" style="stop-color:#3CB9CA"/>
				<stop  offset="0.415" style="stop-color:#32B3C5"/>
				<stop  offset="0.5976" style="stop-color:#00A6B8"/>
				<stop  offset="0.6502" style="stop-color:#0496AB"/>
				<stop  offset="0.7605" style="stop-color:#0D7190"/>
				<stop  offset="0.8737" style="stop-color:#0D4E76"/>
			</radialGradient>
			<path opacity="0.5" fill="url(#SVGID_9_)" d="M157.075,262.457c-4.125-3.105-7.959-6.039-11.669-9.566
				c-0.773-0.74-4.889-3.794-4.332-0.553c0.189,1.279,0.629,2.519,1.153,3.703c2.312,5.424,4.886,10.661,7.137,16.111
				c2.47,6.002,6.17,10.903,10.423,15.448c1.137-0.352,2.264-0.687,3.391-1.09c3.641-1.262,7.166-2.691,10.598-4.25
				c-1.735-2.216-3.001-4.797-4.622-7.117C165.747,270.279,161.808,266.01,157.075,262.457z"/>
			<path opacity="0.5" fill="#33BBE6" d="M237.789,133.726c-21.596-62.8-90.004-96.175-152.805-74.579
				c-62.79,21.581-96.164,89.99-74.558,152.773c21.555,62.794,89.984,96.207,152.753,74.589
				C225.979,264.914,259.385,196.526,237.789,133.726z M38.236,192.861C20.369,140.9,47.987,84.276,99.959,66.393
				c51.992-17.846,108.58,9.793,126.448,61.754c17.867,51.961-9.783,108.564-61.744,126.432
				C112.702,272.446,56.114,244.807,38.236,192.861z"/>
			<path opacity="0.7" fill="#C4E8FA" d="M34.061,106.444c18.985-23.729,38.403-36.281,54.353-42.938
				c0.031-0.047,0.093-0.074,0.135-0.069c4.965-2.438,10.107-4.463,15.303-6.092C85.852,60.221,58.958,69.339,35.28,96.591
				C-4.707,142.665,5.986,199.299,19.971,224.819C19.971,224.819-10.08,161.549,34.061,106.444z"/>
			<path opacity="0.8" fill="#33BBE6" d="M79.018,258.476c-15.735-15.004-37.295-22.809-47.684-43.069
				c-5.586-10.899-8.585-22.902-10.155-35.018c-1.581-11.827-3.192-24.896-0.964-36.744c2.302-12.296,7.799-23.757,9.558-36.189
				c0.496-3.533,0.836-7.104,1.155-10.641C5.575,127.946-3.651,171.111,10.426,211.921c14.685,42.818,51.205,71.958,92.844,79.333
				C95.304,280.196,88.881,267.904,79.018,258.476z"/>
		</g>
		
			<radialGradient id="SVGID_10_" cx="185.5762" cy="-27.0103" r="132.167" gradientTransform="matrix(0.3252 0.9456 -0.9456 0.3252 71.1189 -2.1307)" gradientUnits="userSpaceOnUse">
			<stop  offset="0" style="stop-color:#E4F3FC"/>
			<stop  offset="0.2836" style="stop-color:#3CB9CA"/>
			<stop  offset="0.3388" style="stop-color:#48BBCC"/>
			<stop  offset="0.4175" style="stop-color:#62C2D2"/>
			<stop  offset="0.51" style="stop-color:#85D0DD"/>
			<stop  offset="0.5248" style="stop-color:#8AD4DF"/>
		</radialGradient>
		<path opacity="0.5" fill="url(#SVGID_10_)" d="M184.446,276.815c-1.908,1.104-3.838,2.17-5.81,3.165
			c4.322,26.393,3.853,43.545-2.407,45.687c-6.27,2.158-17.213-11.151-30.047-34.664c-14.361-26.245-31.096-65.23-46.376-109.665
			C84.463,136.726,73.684,95.579,68.89,66.024c-4.291-26.305-3.842-43.426,2.396-45.537c6.228-2.162,17.077,11.016,29.869,34.32
			c2.18-0.424,4.361-0.782,6.521-1.108C89.705,19.359,73.692-0.8,64.616,2.315c-9.086,3.132-9.305,29.014-2.297,67.338
			c5.778,31.473,16.43,71.317,31.062,113.873c14.59,42.416,30.655,80.301,45.437,108.633c18.065,34.673,34.236,55.072,43.332,51.925
			C191.235,340.953,191.465,315.123,184.446,276.815z"/>
		<path fill="#43B0D7" d="M102.693,50.115c-3.943-7.661-8.273-15.149-13.093-22.308c-2.458-3.576-4.997-7.028-7.903-10.202
			c-1.442-1.57-2.978-3.065-4.69-4.362c-1.651-1.255-3.542-2.354-5.565-2.503c-0.992-0.072-1.952,0.216-2.786,0.723
			c-0.417,0.288-0.75,0.586-1.157,0.993c-0.334,0.366-0.668,0.731-0.959,1.169c-1.167,1.688-1.947,3.676-2.488,5.712
			c-1.09,4.087-1.43,8.403-1.466,12.672c-0.104,8.583,0.824,17.177,2.129,25.68c1.293,8.52,2.995,16.971,4.863,25.375
			c1.899,8.425,3.935,16.782,6.167,25.113c2.223,8.346,4.56,16.656,7.022,24.913c2.452,8.274,5.009,16.525,7.638,24.735
			c2.609,8.242,5.343,16.43,8.087,24.604c2.733,8.189,5.541,16.336,8.378,24.505c3.079,7.943,6.469,15.959,9.819,23.902
			c3.36,7.928,6.813,15.85,10.361,23.699c3.526,7.879,7.22,15.713,10.913,23.478c3.726,7.786,7.585,15.504,11.676,23.081
			c4.079,7.592,8.367,15.076,13.291,22.145c2.478,3.478,5.101,6.939,8.247,9.753c1.566,1.381,3.333,2.668,5.273,3.01
			c0.972,0.171,1.92-0.034,2.724-0.562c0.845-0.522,1.386-1.405,1.949-2.251l0.031-0.046l0.042-0.063
			c0.532-0.662,1.063-1.598,1.427-2.485c0.218-0.465,0.426-0.914,0.572-1.405c0.166-0.454,0.344-0.924,0.479-1.398l0.416-1.441
			l0.342-1.467c0.25-0.986,0.363-1.974,0.539-2.985c0.198-0.977,0.25-2.004,0.362-2.99c0.135-1.018,0.175-2.031,0.258-3.038
			c0.04-1.013,0.112-2.004,0.121-3.038l0.038-3.047c0.02-0.981-0.024-2.004-0.066-3.026c-0.022-0.986-0.013-2.02-0.107-3.032
			c-0.181-2.04-0.235-4.064-0.446-6.058l-0.327-3.042c-0.096-1.012-0.19-2.024-0.328-3.042l-0.821-6.037l0.958,6.037
			c0.178,1.022,0.294,2.003,0.399,2.999l0.39,3.017c0.285,2.019,0.36,4.081,0.603,6.094c0.095,1.012,0.086,2.045,0.14,3.052
			c0.053,1.008,0.106,2.015,0.139,3.053l0.014,3.037c0.023,1.054-0.038,2.03-0.068,3.094c-0.072,0.992-0.072,2.009-0.206,3.027
			c-0.134,1.018-0.133,2.036-0.34,3.028c-0.156,1.048-0.27,2.035-0.487,3.042l-0.322,1.503l-0.395,1.477
			c-0.125,0.527-0.302,0.997-0.489,1.482c-0.155,0.507-0.301,0.998-0.521,1.462c-0.416,0.965-0.874,1.859-1.603,2.752l0.083-0.058
			c-0.583,0.945-1.166,1.958-2.229,2.607c-0.96,0.694-2.243,0.994-3.422,0.797c-2.328-0.373-4.208-1.759-5.879-3.187
			c-3.302-2.918-5.977-6.37-8.528-9.873c-5.07-7.054-9.432-14.562-13.616-22.134c-8.367-15.143-15.879-30.757-23.037-46.497
			c-3.579-7.87-7.053-15.761-10.476-23.73c-3.381-7.964-6.731-15.838-9.954-23.97c-2.849-8.153-5.687-16.321-8.462-24.515
			c-2.734-8.189-5.437-16.426-8.004-24.661c-2.619-8.226-5.154-16.509-7.565-24.777c-2.432-8.305-4.738-16.662-6.949-25.023
			c-2.182-8.342-4.217-16.766-6.095-25.222c-1.784-8.462-3.402-16.971-4.613-25.548c-1.211-8.577-2.056-17.227-1.878-25.921
			c0.14-4.358,0.51-8.72,1.674-12.984c0.591-2.115,1.403-4.219,2.747-6.036c0.312-0.47,0.729-0.893,1.104-1.321l0.637-0.549
			c0.24-0.157,0.437-0.387,0.709-0.522c1-0.623,2.232-0.912,3.39-0.819c2.359,0.19,4.322,1.451,6.067,2.769
			c1.714,1.365,3.259,2.914,4.701,4.549c2.885,3.274,5.416,6.809,7.757,10.421C94.786,34.757,98.917,42.338,102.693,50.115z"/>
	</g>
</g>
</svg>
