<?xml version="1.0" encoding="utf-8"?>
<!-- Generator: Adobe Illustrator 16.0.0, SVG Export Plug-In . SVG Version: 6.00 Build 0)  -->
<!DOCTYPE svg PUBLIC "-//W3C//DTD SVG 1.1//EN" "http://www.w3.org/Graphics/SVG/1.1/DTD/svg11.dtd">
<svg version="1.1" id="Layer_1" xmlns="http://www.w3.org/2000/svg" xmlns:xlink="http://www.w3.org/1999/xlink" x="0px" y="0px"
	 width="247.532px" height="247.276px" viewBox="0 0 247.532 247.276" enable-background="new 0 0 247.532 247.276"
	 xml:space="preserve">
<radialGradient id="SVGID_1_" cx="64.0376" cy="17.2144" r="302.7389" gradientUnits="userSpaceOnUse">
	<stop  offset="0" style="stop-color:#CA963F"/>
	<stop  offset="0.4192" style="stop-color:#E26343"/>
	<stop  offset="0.7601" style="stop-color:#E69420"/>
</radialGradient>
<path fill="url(#SVGID_1_)" d="M237.1,125.179c0,64.217-52.043,116.26-116.248,116.26c-64.205,0-116.236-52.043-116.236-116.26
	c0-64.193,52.031-116.236,116.236-116.236C185.056,8.942,237.1,60.986,237.1,125.179z"/>
<radialGradient id="SVGID_2_" cx="138.249" cy="191.314" r="232.1612" gradientUnits="userSpaceOnUse">
	<stop  offset="0" style="stop-color:#E4F3FC"/>
	<stop  offset="0.4192" style="stop-color:#E26343"/>
	<stop  offset="0.7601" style="stop-color:#CF2127"/>
</radialGradient>
<path fill="url(#SVGID_2_)" d="M202.102,99.739c-0.368,0.214-0.725,0.143-0.974-0.095c-1.296,1.498-1.915,3.804-0.262,4.945
	c1.307,0.903,2.746,1.093,3.661-0.428c0.691-1.141,1.07-2.71,0.631-4.042C204.646,98.598,203.197,99.122,202.102,99.739z"/>
<path opacity="0.3" fill="#FFEBCC" d="M209.152,129.007c0.202-4.827,9.011-5.136,12.233-5.421c3.946-0.31,7.892-0.38,11.863-0.571
	c1.142-0.047,2.509,0,3.816-0.095c-0.274-14.717-3.306-28.721-8.547-41.583c-6.717,1.997-15.252,4.446-19.496-0.047
	c-3.388-3.566-1.986-8.939-0.786-13.171c1.534-5.326,1.618-10.628,3.271-15.692c-1.13-1.403-2.271-2.758-3.448-4.089
	c-0.416,0.523-0.797,1.093-1.093,1.783c-1.451,3.352-1.451,7.156-1.416,10.794c0.072,7.323,0.69,14.645-5.515,19.662
	c-1.951,1.568-4.339,2.805-5.945,4.755c-2.793,3.423-1.568,6.799-0.344,10.508c1.438,4.375,1.984,7.94,0.593,12.411
	c-1.973,6.301-6.336,10.533-12.945,11.555c-6.194,0.951-12.553-0.167-18.699,0.927c-3.257,0.594-6.633,1.831-8.452,4.779
	c-2.377,3.852-0.903,7.632-2.163,11.626c-2.365,7.441-13.874,10.937-20.72,11.293c-7.133,0.404-14.883-1.355-21.766,0.999
	c-4.292,1.474-8.178,3.78-11.602,6.728c-5.576,4.826-10.249,10.984-16.62,14.883c-6.883,4.184-14.955,4.993-22.741,2.996
	c-8.784-2.235-16.227-7.228-24.273-11.126c-8.31-4.018-16.239-5.326-24.358-2.616c8.689,27.437,27.281,50.451,51.581,64.906
	c0.772-0.285,1.604-0.404,2.211-0.546c4.421-0.951,8.88-1.617,12.386-4.803c4.09-3.685,5.243-8.82,5.337-14.193
	c0.06-3.163-0.047-5.992,1.737-8.749c4.552-7.014,16.666-8.916,24-11.08c6.836-2.021,14.587-1.212,21.185-3.804
	c8.761-3.424,7.381-13.6,10.876-20.637c1.592-3.233,4.113-5.444,7.038-7.465c4.802-3.257,8.451-6.515,11.994-11.151
	c3.055-3.994,6.18-7.204,10.781-9.391c5.018-2.401,10.533-3.209,15.49-5.801c3.02-1.57,6.278-3.804,9.819-3.495
	c2.867,0.261,5.386,3.162,6.717,5.492c1.225,2.14,1.582,4.422,2.474,6.705c1.89,4.755,6.027,5.064,10.366,4.921
	c4.16-0.143,7.608,0.357,10.675,3.423c2.413,2.402,4.695,5.326,8.202,6.11c0.452,0.096,0.891,0.19,1.356,0.238
	c0.404-1.735,0.749-3.471,1.058-5.254c-2.449-1.641-4.53-3.899-7.062-5.468C223.215,137.185,208.796,137.756,209.152,129.007z
	 M71.471,216.143c-0.5,0.38-1.083,0.666-1.725,0.855c-0.189,0.072-0.344,0.048-0.5,0c-3.875,1.094-8.154,0.31-7.964-3.257
	c0.251-4.327,5.636-10.627,10.152-7.442c0.428,0.31,0.773,0.642,1.093,0.999c0.286-0.095,0.607-0.072,0.891,0.213
	c0.654,0.666,1.273,1.475,1.57,2.377C75.821,212.647,74.026,214.858,71.471,216.143z M72.838,198.667
	c-4.042-0.737-11.519-4.493-9.034-9.842c1.379-2.925,4.469-3.757,7.713-4.065c1.844-0.452,3.876-0.595,5.73-0.333
	c0.404-0.047,0.784-0.095,1.153-0.142c0.535-0.072,0.928,0.261,1.07,0.665c1.926,0.785,3.472,2.164,4.041,4.565
	C84.915,195.506,78.234,199.666,72.838,198.667z M103.151,163.029c-1.521,1.165-7.049,3.472-7.441,0
	c-0.238-2.14,2.032-4.564,3.649-5.659c0.333-0.238,0.63-0.19,0.879-0.023c1.296-1.118,2.818-1.759,4.09-0.428
	C106.016,158.75,104.851,161.697,103.151,163.029z M131.11,175.25c-3.316,4.327-11.887,5.658-16.774,3.875
	c-5.657-2.092-1.807-8.559,1.748-10.39c2.081-1.046,5.29-2.33,8.405-2.758c0.024-0.333,0.226-0.594,0.642-0.689
	c2.425-0.38,6.336-0.523,7.548,2.306C133.821,170.328,132.846,172.991,131.11,175.25z M205.348,105.969
	c-1.949,1.877-5.302,1.189-6.681-1.141c-1.699-2.853,0.749-7.323,3.853-8.155c0.605-0.166,1.011,0.286,1.07,0.737
	c1.425-0.095,2.769,0.476,3.28,2.235C207.452,101.689,206.917,104.447,205.348,105.969z"/>
<radialGradient id="SVGID_3_" cx="138.0781" cy="191.2661" r="232.3596" gradientUnits="userSpaceOnUse">
	<stop  offset="0" style="stop-color:#E4F3FC"/>
	<stop  offset="0.4192" style="stop-color:#E26343"/>
	<stop  offset="0.7601" style="stop-color:#CF2127"/>
</radialGradient>
<path fill="url(#SVGID_3_)" d="M212.231,81.147c5.076,1.426,10.414-0.095,15.562-1.57c-3.913-9.129-8.952-17.641-14.944-25.392
	c-0.951,3.852-1.034,7.774-2.188,11.84C209.508,70.164,205.896,79.388,212.231,81.147z"/>
<path opacity="0.3" fill="#FFEBCC" d="M36.2,137.447c3.804-0.855,7.429-1.45,9.712-4.897c1.142-1.712,2.163-3.353,3.792-4.636
	c3.841-2.996,9.463,0.784,13.683-0.785c3.971-1.45,3.044-4.684,3.436-7.68c0.037-0.333,0.453-1.902-0.166-2.234
	c-2.877-1.617-6.253-2.615-9.582-2.33c-2.295,0.238-5.101,1.118-7.418,0.499c-3.72-1.022-6.978-3.186-10.972-2.258
	c-4.909,1.142-6.657,0.024-10.188-3.21c-4.018-3.708-9.688-1.617-14.551-1.189c-1.604,0.143-3.614,0.405-5.111-0.333
	c-1.035,0.238-2.068,0.428-3.114,0.666c-0.726,5.278-1.105,10.651-1.105,16.119c0,5.563,0.392,11.008,1.153,16.357
	c1.819-0.57,3.649-1.117,5.527-1.521c7.299-1.617,14.74-1.617,22.146-1.973C34.369,137.827,35.296,137.613,36.2,137.447z"/>
<path opacity="0.3" fill="#FFD192" d="M131.11,94.295c-0.333,0.167-0.667,0.333-0.998,0.475c-0.488,0.262-1.058,0.428-1.616,0.404
	c-2.818-0.143-5.078-1.474-7.871-0.047c-2.176,1.093-5.883,1.831-6.99,4.256c-0.237,0.547-0.392,1.142-0.558,1.735
	c1.926,2.164,4.042,2.996,7.324,2.806c0.998-0.047,2.02-0.19,3.007,0.095c1.461,0.381,2.021,0.143,2.281-1.188
	c0.25-1.331,0.607-2.188,1.867-2.734c1.499-0.619,4.268,0.071,5.659-1.165c0.179-0.381,0.345-0.784,0.476-1.212
	c0.119-0.428,0.226-0.88,0.309-1.332C133.809,94.889,132.763,93.463,131.11,94.295z"/>
<path opacity="0.5" fill="#9B1C20" d="M91.846,111.318c-0.084,0.143-0.226,0.261-0.428,0.261c-2.199,0.096-4.362,0.761-6.134,2.069
	c-1.07,0.808-3.436,2.092-1.558,3.091c1.927,0.999,4.102,1.593,6.278,1.664c4.671,0.119,9.129-1.854,9.57-6.824
	C97.099,111.508,94.438,111.223,91.846,111.318z"/>
<path opacity="0.5" fill="#9B1C20" d="M151.604,78.342c-0.951,1.188-1.783,2.473-2.449,3.828
	c8.939,2.187,18.342-3.114,18.354-12.815C161.697,70.401,155.623,73.872,151.604,78.342z"/>
<path opacity="0.5" fill="#9B1C20" d="M74.895,161.507c-0.107-0.048-0.238-0.095-0.369-0.167c-0.096-0.023-0.202-0.047-0.31-0.095
	c-3.481,0.38-7.298,0.785-10.507,2.235c-0.642,0.619-1.165,1.284-1.391,1.997c1.021,0.689,2.234,1.141,2.96,1.355
	c1.973,0.595,3.555,0.666,5.562,0.023c1-0.333,7.288-1.688,6.111-3.399C76.38,162.648,75.679,162.03,74.895,161.507z"/>
<path opacity="0.3" fill="#FFD192" d="M121.137,15.813c5.266,1.521,10.437,3.423,15.335,5.896c2.222,1.142,4.873,2.259,6.799,3.876
	c2.33,1.973,4.541,4.065,6.894,6.015c5.327,4.399,13.03,9.32,19.996,5.587c5.004-2.663,8.619-7.299,13.825-9.629
	C165.799,15.79,144.126,8.942,120.852,8.942c-9.142,0-18.034,1.046-26.569,3.067C103.365,12.009,112.447,13.27,121.137,15.813z"/>
<path opacity="0.5" fill="#9B1C20" d="M81.92,100.072c-0.595,0.071-1.212,0.143-1.807,0.19c-0.428,0-0.809,0-1.188-0.142
	c-1.618-0.737-2.877-1.973-4.625-2.378c-2.639-0.618-5.694-0.523-6.918,1.236c-0.226,0.57-0.297,1.212-0.119,1.854
	c0.619,2.164,3.044,3.138,5.063,3.495c3.281,0.618,6.991,0.5,10.2-0.499c0.607-0.167,1.403-0.476,2.069-0.904
	C84.38,102.022,83.512,101.047,81.92,100.072z"/>
<path opacity="0.5" fill="#9B1C20" d="M124.989,210.865c-0.333,0.023-0.667,0.047-1.011,0.095c-1.783,0.856-3.555,1.735-5.278,2.758
	c-0.369,0.214-0.714-0.048-0.785-0.357c-2.723,1.783-5.041,4.327-6.681,6.895c7.727,2.711,16.62-2.971,16.844-11.245
	c-0.844,0.404-1.711,0.808-2.567,1.212C125.535,210.531,125.38,210.84,124.989,210.865z"/>
<path opacity="0.1" fill="#AC4836" d="M120.852,7.39C56.646,7.39,4.615,59.433,4.615,123.626
	c0,64.217,52.031,116.261,116.236,116.261c64.205,0,116.248-52.044,116.248-116.261C237.1,59.433,185.056,7.39,120.852,7.39z
	 M112.173,208.455c-53.137,0-96.206-43.104-96.206-96.217c0-53.138,43.068-96.219,96.206-96.219
	c53.126,0,96.207,43.081,96.207,96.219C208.38,165.352,165.299,208.455,112.173,208.455z"/>
<path opacity="0.4" fill="#CAC9B7" d="M31.849,186.637c-15.714-24.821-21.124-46.528-22.169-63.194
	c-0.012-0.047-0.024-0.095-0.024-0.167c-0.654-5.302-0.915-10.627-0.737-15.881c-3.055,17.355-3.197,44.815,14.301,75.01
	c29.564,51.069,84.699,59.105,112.433,54.35C135.651,236.756,68.355,244.316,31.849,186.637z"/>
<path opacity="0.5" fill="#6D0E0F" d="M64.576,66.645c-4.315-2.235-9.308-0.713-13.695,0.404c-2.163,0.547-4.683,1.165-6.336,2.758
	c-1.403,1.355-4.078,3.399-4.137,5.563c-0.083,1.973,3.448,3.59,4.648,4.921c1.427,1.617,3.009,2.497,5.267,2.259
	c2.211-0.238,4.422-1.07,6.252-2.401c1.356-0.666,2.616-1.664,3.674-2.877c0.618-0.689,1.105-1.522,1.581-2.306
	c1.07-1.76,2.342-3.138,3.53-4.779C66.264,68.975,65.93,67.358,64.576,66.645z"/>
<path opacity="0.5" fill="#6D0E0F" d="M80.469,75.869c-0.927-0.404-2.127-0.048-3.032,0.523c-0.07,0.048-0.154,0.095-0.225,0.143
	c-0.131,0.095-0.25,0.19-0.381,0.285c-0.416,0.38-0.796,0.999-0.737,1.545c0,0.072-0.023,0.12-0.012,0.214
	c0.06,0.713,0.689,1.188,1.319,1.426c1.415,0.523,2.937-0.356,3.674-1.569C81.61,77.557,81.467,76.345,80.469,75.869z"/>
<path opacity="0.5" fill="#9B1C20" d="M189.062,138.897c-1.26-2.021-9.581,0.951-10.972,1.95c-2.021,1.426-3.876,2.496-5.575,3.661
	c-1.154,0.452-2.284,1.046-3.413,1.735c-2.687,1.688-4.339,4.661-7.013,6.325c-1.451,0.88-3.388,1.854-4.256,3.447
	c-1.331,2.521-0.583,6.016,3.02,5.611c3.542-0.428,6.253-2.639,10.021-2.021c2.544,0.451,5.243,0.547,7.775-0.024
	c3.983-0.927,6.871-5.658,8.488-9.01c1.081-2.235,1.034-4.613,1.081-7.038C188.242,141.56,190.132,140.633,189.062,138.897z"/>
</svg>
